<?xml version="1.0" encoding="UTF-8"?>
<svg id="Layer_1" data-name="Layer 1" xmlns="http://www.w3.org/2000/svg" viewBox="0 0 1560 570.1">
  <defs>
    <style>
      .cls-1 {
        fill: #f8f3f8;
      }

      .cls-2 {
        fill: #231f20;
      }

      .cls-3, .cls-4 {
        font-size: 45px;
      }

      .cls-5 {
        font-family: Helvetica, Helvetica;
      }

      .cls-4, .cls-6 {
        font-family: Helvetica-Bold, Helvetica;
        font-weight: 700;
      }

      .cls-7 {
        stroke-width: 2px;
      }

      .cls-7, .cls-8 {
        fill: none;
        stroke: #000;
        stroke-miterlimit: 10;
      }

      .cls-9 {
        letter-spacing: -.02em;
      }

      .cls-10 {
        letter-spacing: -.05em;
      }

      .cls-8 {
        stroke-width: 3px;
      }
    </style>
  </defs>
  <rect class="cls-1" y="484.46" width="1560" height="84.14"/>
  <text class="cls-4" transform="translate(20 84.97)"><tspan x="0" y="0">Algorithm</tspan></text>
  <text class="cls-3" transform="translate(20 179.69)"><tspan class="cls-5"><tspan x="0" y="0">SVG(∞) </tspan></tspan><tspan class="cls-5"><tspan x="0" y="72">BPT</tspan><tspan class="cls-9" x="87.52" y="72">T</tspan></tspan><tspan class="cls-5"><tspan x="0" y="144">SHAC/SAPO </tspan></tspan><tspan class="cls-5"><tspan x="0" y="216">PWM </tspan></tspan><tspan class="cls-5"><tspan x="0" y="288">MAAC/Dreamer </tspan></tspan><tspan class="cls-6"><tspan x="0" y="360">DMO</tspan></tspan></text>
  <text class="cls-4" transform="translate(1297.94 84.97)"><tspan x="0" y="0">Decoupling</tspan></text>
  <text class="cls-4" transform="translate(432.04 45.57)"><tspan x="0" y="0">Needs no </tspan><tspan x="8.77" y="54">diff. sim. </tspan></text>
  <text class="cls-4" transform="translate(779.45 45.57)"><tspan class="cls-10" x="0" y="0">V</tspan><tspan x="27.55" y="0">alue </tspan><tspan x="-44.94" y="54">bootstrap </tspan></text>
  <text class="cls-4" transform="translate(1040.32 45.57)"><tspan x="0" y="0">Parallel</tspan><tspan x="35.04" y="54">sim. </tspan></text>
  <line class="cls-7" y1="116.24" x2="1560" y2="116.24"/>
  <line class="cls-8" y1="1.5" x2="1560" y2="1.5"/>
  <line class="cls-8" y1="568.6" x2="1560" y2="568.6"/>
  <path class="cls-2" d="M512.3,158.03c1.55-1.55,3.88-1.55,5.43,0l8.93,8.93,22.51-22.51c1.55-1.55,4.27-1.16,5.43.39,1.16,1.55,1.16,3.49,0,5.05l-25.23,25.23c-1.55,1.55-3.88,1.55-5.43,0l-11.64-11.64c-1.55-1.55-1.55-3.88,0-5.43Z"/>
  <path class="cls-2" d="M512.3,373.85c1.55-1.55,3.88-1.55,5.43,0l8.93,8.93,22.51-22.51c1.55-1.55,4.27-1.16,5.43.39,1.16,1.55,1.16,3.49,0,5.05l-25.23,25.23c-1.55,1.55-3.88,1.55-5.43,0l-11.64-11.64c-1.55-1.55-1.55-3.88,0-5.43Z"/>
  <path class="cls-2" d="M512.3,446.8c1.55-1.55,3.88-1.55,5.43,0l8.93,8.93,22.51-22.51c1.55-1.55,4.27-1.16,5.43.39,1.16,1.55,1.16,3.49,0,5.05l-25.23,25.23c-1.55,1.55-3.88,1.55-5.43,0l-11.64-11.64c-1.55-1.55-1.55-3.88,0-5.43Z"/>
  <path class="cls-2" d="M512.3,518.93c1.55-1.55,3.88-1.55,5.43,0l8.93,8.93,22.51-22.51c1.55-1.55,4.27-1.16,5.43.39,1.16,1.55,1.16,3.49,0,5.05l-25.23,25.23c-1.55,1.55-3.88,1.55-5.43,0l-11.64-11.64c-1.55-1.55-1.55-3.88,0-5.43Z"/>
  <path class="cls-2" d="M514.55,217.9c-1.59-1.59-1.59-3.97,0-5.56s3.97-1.59,5.56,0l13.1,13.1,13.1-13.1c1.59-1.59,4.37-1.19,5.56,0,1.19,1.59,1.19,3.57,0,5.16l-13.1,13.1,13.1,13.1c1.59,1.59,1.98,3.97.4,5.56s-3.97,1.98-5.56.4h-.4c0-.4-13.1-13.49-13.1-13.49l-13.1,13.1c-1.59,1.59-4.37,1.19-5.56-.4s-1.19-3.57,0-5.16l13.1-13.1-13.1-13.1v.4Z"/>
  <path class="cls-2" d="M514.55,289.74c-1.59-1.59-1.59-3.97,0-5.56s3.97-1.59,5.56,0l13.1,13.1,13.1-13.1c1.59-1.59,4.37-1.19,5.56,0,1.19,1.59,1.19,3.57,0,5.16l-13.1,13.1,13.1,13.1c1.59,1.59,1.98,3.97.4,5.56s-3.97,1.98-5.56.4h-.4c0-.4-13.1-13.49-13.1-13.49l-13.1,13.1c-1.59,1.59-4.37,1.19-5.56-.4s-1.19-3.57,0-5.16l13.1-13.1-13.1-13.1v.4Z"/>
  <path class="cls-2" d="M817.24,300.91c1.55-1.55,3.88-1.55,5.43,0l8.93,8.93,22.51-22.51c1.55-1.55,4.27-1.16,5.43.39,1.16,1.55,1.16,3.49,0,5.05l-25.23,25.23c-1.55,1.55-3.88,1.55-5.43,0l-11.64-11.64c-1.55-1.55-1.55-3.88,0-5.43Z"/>
  <path class="cls-2" d="M1099.37,300.91c1.55-1.55,3.88-1.55,5.43,0l8.93,8.93,22.51-22.51c1.55-1.55,4.27-1.16,5.43.39,1.16,1.55,1.16,3.49,0,5.05l-25.23,25.23c-1.55,1.55-3.88,1.55-5.43,0l-11.64-11.64c-1.55-1.55-1.55-3.88,0-5.43Z"/>
  <path class="cls-2" d="M1099.37,227.96c1.55-1.55,3.88-1.55,5.43,0l8.93,8.93,22.51-22.51c1.55-1.55,4.27-1.16,5.43.39,1.16,1.55,1.16,3.49,0,5.05l-25.23,25.23c-1.55,1.55-3.88,1.55-5.43,0l-11.64-11.64c-1.55-1.55-1.55-3.88,0-5.43Z"/>
  <path class="cls-2" d="M817.24,373.85c1.55-1.55,3.88-1.55,5.43,0l8.93,8.93,22.51-22.51c1.55-1.55,4.27-1.16,5.43.39,1.16,1.55,1.16,3.49,0,5.05l-25.23,25.23c-1.55,1.55-3.88,1.55-5.43,0l-11.64-11.64c-1.55-1.55-1.55-3.88,0-5.43Z"/>
  <path class="cls-2" d="M817.24,446.8c1.55-1.55,3.88-1.55,5.43,0l8.93,8.93,22.51-22.51c1.55-1.55,4.27-1.16,5.43.39,1.16,1.55,1.16,3.49,0,5.05l-25.23,25.23c-1.55,1.55-3.88,1.55-5.43,0l-11.64-11.64c-1.55-1.55-1.55-3.88,0-5.43Z"/>
  <path class="cls-2" d="M817.24,518.93c1.55-1.55,3.88-1.55,5.43,0l8.93,8.93,22.51-22.51c1.55-1.55,4.27-1.16,5.43.39,1.16,1.55,1.16,3.49,0,5.05l-25.23,25.23c-1.55,1.55-3.88,1.55-5.43,0l-11.64-11.64c-1.55-1.55-1.55-3.88,0-5.43Z"/>
  <path class="cls-2" d="M819.49,217.9c-1.59-1.59-1.59-3.97,0-5.56s3.97-1.59,5.56,0l13.1,13.1,13.1-13.1c1.59-1.59,4.37-1.19,5.56,0,1.19,1.59,1.19,3.57,0,5.16l-13.1,13.1,13.1,13.1c1.59,1.59,1.98,3.97.4,5.56s-3.97,1.98-5.56.4h-.4c0-.4-13.1-13.49-13.1-13.49l-13.1,13.1c-1.59,1.59-4.37,1.19-5.56-.4s-1.19-3.57,0-5.16l13.1-13.1-13.1-13.1v.4Z"/>
  <path class="cls-2" d="M819.49,146.86c-1.59-1.59-1.59-3.97,0-5.56s3.97-1.59,5.56,0l13.1,13.1,13.1-13.1c1.59-1.59,4.37-1.19,5.56,0,1.19,1.59,1.19,3.57,0,5.16l-13.1,13.1,13.1,13.1c1.59,1.59,1.98,3.97.4,5.56s-3.97,1.98-5.56.4h-.4c0-.4-13.1-13.49-13.1-13.49l-13.1,13.1c-1.59,1.59-4.37,1.19-5.56-.4s-1.19-3.57,0-5.16l13.1-13.1-13.1-13.1v.4Z"/>
  <path class="cls-2" d="M1101.62,146.49c-1.59-1.59-1.59-3.97,0-5.56s3.97-1.59,5.56,0l13.1,13.1,13.1-13.1c1.59-1.59,4.37-1.19,5.56,0,1.19,1.59,1.19,3.57,0,5.16l-13.1,13.1,13.1,13.1c1.59,1.59,1.98,3.97.4,5.56s-3.97,1.98-5.56.4h-.4c0-.4-13.1-13.49-13.1-13.49l-13.1,13.1c-1.59,1.59-4.37,1.19-5.56-.4s-1.19-3.57,0-5.16l13.1-13.1-13.1-13.1v.4Z"/>
  <path class="cls-2" d="M1099.37,373.85c1.55-1.55,3.88-1.55,5.43,0l8.93,8.93,22.51-22.51c1.55-1.55,4.27-1.16,5.43.39,1.16,1.55,1.16,3.49,0,5.05l-25.23,25.23c-1.55,1.55-3.88,1.55-5.43,0l-11.64-11.64c-1.55-1.55-1.55-3.88,0-5.43Z"/>
  <path class="cls-2" d="M1099.37,518.93c1.55-1.55,3.88-1.55,5.43,0l8.93,8.93,22.51-22.51c1.55-1.55,4.27-1.16,5.43.39,1.16,1.55,1.16,3.49,0,5.05l-25.23,25.23c-1.55,1.55-3.88,1.55-5.43,0l-11.64-11.64c-1.55-1.55-1.55-3.88,0-5.43Z"/>
  <path class="cls-2" d="M1101.62,438.57c-1.59-1.59-1.59-3.97,0-5.56s3.97-1.59,5.56,0l13.1,13.1,13.1-13.1c1.59-1.59,4.37-1.19,5.56,0,1.19,1.59,1.19,3.57,0,5.16l-13.1,13.1,13.1,13.1c1.59,1.59,1.98,3.97.4,5.56s-3.97,1.98-5.56.4h-.4c0-.4-13.1-13.49-13.1-13.49l-13.1,13.1c-1.59,1.59-4.37,1.19-5.56-.4s-1.19-3.57,0-5.16l13.1-13.1-13.1-13.1v.4Z"/>
  <path class="cls-2" d="M1401.68,438.57c-1.59-1.59-1.59-3.97,0-5.56s3.97-1.59,5.56,0l13.1,13.1,13.1-13.1c1.59-1.59,4.37-1.19,5.56,0,1.19,1.59,1.19,3.57,0,5.16l-13.1,13.1,13.1,13.1c1.59,1.59,1.98,3.97.4,5.56s-3.97,1.98-5.56.4h-.4c0-.4-13.1-13.49-13.1-13.49l-13.1,13.1c-1.59,1.59-4.37,1.19-5.56-.4-1.19-1.59-1.19-3.57,0-5.16l13.1-13.1-13.1-13.1v.4Z"/>
  <path class="cls-2" d="M1399.43,158.03c1.55-1.55,3.88-1.55,5.43,0l8.93,8.93,22.51-22.51c1.55-1.55,4.27-1.16,5.43.39,1.16,1.55,1.16,3.49,0,5.05l-25.23,25.23c-1.55,1.55-3.88,1.55-5.43,0l-11.64-11.64c-1.55-1.55-1.55-3.88,0-5.43Z"/>
  <path class="cls-2" d="M1399.43,518.93c1.55-1.55,3.88-1.55,5.43,0l8.93,8.93,22.51-22.51c1.55-1.55,4.27-1.16,5.43.39,1.16,1.55,1.16,3.49,0,5.05l-25.23,25.23c-1.55,1.55-3.88,1.55-5.43,0l-11.64-11.64c-1.55-1.55-1.55-3.88,0-5.43Z"/>
  <path class="cls-2" d="M1401.68,217.9c-1.59-1.59-1.59-3.97,0-5.56s3.97-1.59,5.56,0l13.1,13.1,13.1-13.1c1.59-1.59,4.37-1.19,5.56,0,1.19,1.59,1.19,3.57,0,5.16l-13.1,13.1,13.1,13.1c1.59,1.59,1.98,3.97.4,5.56s-3.97,1.98-5.56.4h-.4c0-.4-13.1-13.49-13.1-13.49l-13.1,13.1c-1.59,1.59-4.37,1.19-5.56-.4s-1.19-3.57,0-5.16l13.1-13.1-13.1-13.1v.4Z"/>
  <path class="cls-2" d="M1401.68,289.74c-1.59-1.59-1.59-3.97,0-5.56s3.97-1.59,5.56,0l13.1,13.1,13.1-13.1c1.59-1.59,4.37-1.19,5.56,0,1.19,1.59,1.19,3.57,0,5.16l-13.1,13.1,13.1,13.1c1.59,1.59,1.98,3.97.4,5.56s-3.97,1.98-5.56.4h-.4c0-.4-13.1-13.49-13.1-13.49l-13.1,13.1c-1.59,1.59-4.37,1.19-5.56-.4s-1.19-3.57,0-5.16l13.1-13.1-13.1-13.1v.4Z"/>
  <path class="cls-2" d="M1401.68,364.15c-1.59-1.59-1.59-3.97,0-5.56s3.97-1.59,5.56,0l13.1,13.1,13.1-13.1c1.59-1.59,4.37-1.19,5.56,0,1.19,1.59,1.19,3.57,0,5.16l-13.1,13.1,13.1,13.1c1.59,1.59,1.98,3.97.4,5.56s-3.97,1.98-5.56.4h-.4c0-.4-13.1-13.49-13.1-13.49l-13.1,13.1c-1.59,1.59-4.37,1.19-5.56-.4s-1.19-3.57,0-5.16l13.1-13.1-13.1-13.1v.4Z"/>
</svg>