<?xml version="1.0" encoding="UTF-8"?>
<svg id="Layer_1" data-name="Layer 1" xmlns="http://www.w3.org/2000/svg" xmlns:xlink="http://www.w3.org/1999/xlink" viewBox="0 0 1716.53 907.03">
  <defs>
    <style>
      .cls-1, .cls-2 {
        fill: none;
      }

      .cls-3 {
        font-family: Helvetica-Bold, Helvetica;
        font-size: 69px;
        font-weight: 700;
      }

      .cls-3, .cls-4 {
        fill: #57068c;
      }

      .cls-5 {
        font-size: 42px;
      }

      .cls-5, .cls-6 {
        font-family: Helvetica, Helvetica;
      }

      .cls-6 {
        fill: #fff;
        font-size: 48px;
      }

      .cls-7 {
        clip-path: url(#clippath-1);
      }

      .cls-2 {
        stroke: #57068c;
        stroke-miterlimit: 10;
        stroke-width: 5px;
      }

      .cls-8 {
        letter-spacing: -.07em;
      }

      .cls-9 {
        letter-spacing: -.11em;
      }

      .cls-10 {
        letter-spacing: -.02em;
      }

      .cls-11 {
        letter-spacing: -.04em;
      }

      .cls-12 {
        clip-path: url(#clippath);
      }
    </style>
    <clipPath id="clippath">
      <rect class="cls-1" x="1024.04" y="188.85" width="692.43" height="122.01"/>
    </clipPath>
    <clipPath id="clippath-1">
      <rect class="cls-1" x="1023.99" y="188.85" width="692.54" height="122.01"/>
    </clipPath>
  </defs>
  <g>
    <path class="cls-2" d="M165.63,326.58c-19.94,41.56-30.67,85.7-30.67,131.45,0,65.53,22.02,127.77,61.57,183.82"/>
    <polygon class="cls-4" points="182.5 295.57 141.11 329.85 164.61 329.03 176.96 349.02 182.5 295.57"/>
  </g>
  <g>
    <path class="cls-2" d="M1527.3,446.42c.15,3.86.23,7.73.23,11.62,0,54.15-15.03,106.05-42.57,154.06"/>
    <polygon class="cls-4" points="1465.96 641.86 1475.27 588.93 1486.18 609.75 1509.67 610.6 1465.96 641.86"/>
  </g>
  <g>
    <path class="cls-2" d="M534.9,862.18c89.92,27.17,190.37,42.35,296.35,42.35,173.12,0,331.48-40.52,453.29-107.57"/>
    <polygon class="cls-4" points="501.31 851.31 542.46 885.87 537.44 862.91 554.89 847.17 501.31 851.31"/>
  </g>
  <g>
    <path class="cls-2" d="M424.09,95.81c114.5-53.02,255.14-84.26,407.16-84.26,133.95,0,259.07,24.26,365.25,66.3"/>
    <polygon class="cls-4" points="1229.03 91.55 1175.29 91.21 1194 76.98 1190.9 53.68 1229.03 91.55"/>
  </g>
  <g>
    <g>
      <circle class="cls-4" cx="292.23" cy="49.13" r="49.13"/>
      <text class="cls-6" transform="translate(278.89 62.84)"><tspan x="0" y="0">1</tspan></text>
    </g>
    <text class="cls-5" transform="translate(35.48 165.4)"><tspan x="0" y="0">Collect sub-trajectories with </tspan><tspan x="-4.69" y="50.4">simulator in parallel on GPU</tspan><tspan x="40.81" y="100.8">using the current policy</tspan></text>
  </g>
  <text class="cls-3" transform="translate(581.51 446.18)"><tspan x="0" y="0">DMO applied</tspan><tspan x="70.94" y="82.8">to SHAC</tspan></text>
  <g>
    <g>
      <circle class="cls-4" cx="1370.26" cy="592.73" r="49.13"/>
      <text class="cls-6" transform="translate(1356.91 606.44)"><tspan x="0" y="0">4</tspan></text>
    </g>
    <text class="cls-5" transform="translate(1071.46 709.03)"><tspan x="0" y="0">Use collected sub-trajectories to </tspan><tspan x="81.65" y="50.4">learn the value function</tspan></text>
  </g>
  <g>
    <g>
      <circle class="cls-4" cx="292.23" cy="592.73" r="49.13"/>
      <text class="cls-6" transform="translate(278.89 606.44)"><tspan x="0" y="0">3</tspan></text>
    </g>
    <text class="cls-5" transform="translate(39.71 709.03)"><tspan class="cls-11" x="0" y="0">T</tspan><tspan x="24.12" y="0">rain the learned dynamics </tspan><tspan x="16.74" y="50.4">model on sub-trajectories </tspan><tspan x="32.27" y="100.8">stored in a replay bu</tspan><tspan class="cls-10" x="412.83" y="100.8">f</tspan><tspan x="423.76" y="100.8">fer</tspan></text>
  </g>
  <g>
    <g>
      <circle class="cls-4" cx="1370.26" cy="49.13" r="49.13"/>
      <text class="cls-6" transform="translate(1356.91 62.84)"><tspan x="0" y="0">2</tspan></text>
    </g>
    <g>
      <text class="cls-5" transform="translate(1034.4 165.4)"><tspan class="cls-9" x="0" y="0">T</tspan><tspan x="21" y="0">o update the polic</tspan><tspan class="cls-8" x="352.59" y="0">y</tspan><tspan x="370.49" y="0">, backpropagate</tspan><tspan x="10.15" y="201.6">using the derivatives of the learned </tspan><tspan x="184.13" y="252">dynamics model</tspan></text>
      <g class="cls-12">
        <g class="cls-7">
          <g>
            <path d="M1024.53,232.67c0-.24.16-.47.49-.69h22.54c.21.08.36.23.44.44v3.39c0,1.99-.03,3.15-.08,3.47-.05.32-.27.48-.65.48-.22,0-.38-.07-.49-.2-.11-.13-.21-.43-.32-.89-.08-1.05-.59-2.03-1.54-2.95-.83-.89-1.8-1.48-2.91-1.78s-2.52-.49-4.24-.57h-2.34c-.43.32-.67.7-.73,1.13s-.11,2.16-.16,5.17v4.93h.69c1.4-.14,2.49-.42,3.27-.85.78-.43,1.4-1.08,1.86-1.94.43-1.1.65-2.01.65-2.71,0-.62.21-.93.65-.93.24,0,.44.11.61.32.11.11.16,2.26.16,6.46v2.54c0,.94.02,1.55.04,1.82,0,.97-.04,1.59-.12,1.86-.08.27-.3.4-.65.4-.46.03-.69-.24-.69-.81,0-.62-.19-1.33-.57-2.14-.78-1.56-2.42-2.44-4.93-2.63h-.97v5.41c.03.73.04,1.63.04,2.71.03,1.64.07,2.63.12,2.95.05.32.24.63.57.93.08.05.14.09.16.12h1.98c1.86,0,3.45-.2,4.77-.61,3.29-1.16,5.34-2.9,6.18-5.21.08-.65.35-.97.81-.97.19,0,.35.08.49.24.13.16.21.35.24.57-.05.05-.27,1.24-.65,3.55-.38,2.32-.65,3.55-.81,3.72l-.16.16h-23.27c-.32-.16-.49-.39-.49-.69,0-.51.53-.77,1.58-.77,1.1-.08,1.72-.31,1.86-.69.14-.21.2-4.11.2-11.67s-.07-11.48-.2-11.75c-.16-.35-.78-.57-1.86-.65-1.05,0-1.58-.24-1.58-.73ZM1029.58,245.8c0,5.66-.01,9.05-.04,10.18-.03,1.13-.11,1.83-.24,2.1-.03.03-.04.05-.04.08h4.28c-.05-.16-.11-.34-.16-.53l-.2-.53v-22.7l.2-.49.16-.52h-4.28c.08.19.14.32.16.4.03.08.05.55.08,1.41.03.86.05,2.02.08,3.48.03,1.45.03,3.82,0,7.11ZM1046.54,235.22v-1.82h-2.14c0,.05.15.17.44.36.32.13.69.4,1.09.81l.61.65ZM1041.01,246.77v-3.23l-.57.57c-.32.35-.67.62-1.05.81l-.57.32c.19.14.4.26.65.36.48.35.85.59,1.09.73l.44.44ZM1047.55,257.11l.16-1.09s-.08.07-.16.2c-.67.59-1.43,1.09-2.26,1.49l-.61.36,1.25.08h1.41s.02-.08.04-.16.05-.21.08-.4c.03-.19.05-.35.08-.49Z"/>
            <path d="M1053.43,257.52c-.4,0-.6-.09-.6-.28,0-.13.26-.55.77-1.26s1.03-1.28,1.54-1.71c.67-.51,1.28-.81,1.86-.89.11-.04,1.71-.06,4.8-.06s4.62.02,4.71.06c.38.1.57.35.57.77,0,.27-.08.51-.26.74-.17.23-.39.38-.66.46-.11.04-1.03.06-2.74.06s-2.57.02-2.57.06c-.02.02-.17.8-.46,2.34-.29,1.54-.59,3.11-.91,4.71-.32,1.6-.5,2.45-.51,2.54-.09.29-.27.51-.51.69-.25.17-.52.26-.83.26-.63,0-.94-.31-.94-.94v-.28l1.43-4.63c.21-.69.44-1.45.69-2.29s.45-1.45.6-1.83l.17-.6s-.44-.03-1.31-.03h-.31c-.17,0-.3,0-.4-.03-1.48,0-2.65.61-3.48,1.83-.1.15-.17.24-.23.26-.06.02-.19.04-.4.06Z"/>
            <path d="M1068.65,260.89c0-1.43.44-2.74,1.31-3.94.87-1.2,2.03-1.8,3.46-1.8.72,0,1.43.17,2.11.51s1.31.77,1.88,1.28c.57.51,1.13,1.01,1.69,1.48.55.48,1.15.89,1.8,1.26.65.36,1.31.54,2,.54,1.18,0,2.14-.45,2.88-1.34s1.11-1.87,1.11-2.91c0-.23.04-.42.11-.57.08-.15.17-.24.29-.26.27,0,.4.31.4.94,0,1.41-.43,2.71-1.28,3.91-.86,1.2-1.95,1.8-3.29,1.8h-.23c-.7,0-1.4-.17-2.09-.51s-1.32-.76-1.91-1.26c-.59-.49-1.15-.99-1.69-1.48s-1.13-.92-1.8-1.28-1.32-.53-1.97-.51c-.84,0-1.58.24-2.23.71-.69.55-1.15,1.2-1.4,1.94-.25.74-.4,1.33-.46,1.77-.06.44-.16.66-.31.66-.27,0-.4-.31-.4-.94Z"/>
            <path d="M1093.07,265.95c-.65,0-.97-.31-.97-.94v-.31l.37-.8c1.43-3.01,2.46-5.61,3.11-7.8l.23-.69h-.91c-.72,0-1.24.03-1.54.09-.3.06-.67.24-1.11.54-.21.13-.42.31-.63.51s-.39.41-.54.6-.24.31-.26.34c-.04.02-.18.03-.43.03-.36,0-.54-.09-.54-.28,0-.11.18-.45.54-1s.89-1.14,1.57-1.77c.68-.63,1.36-.99,2.03-1.09.13-.04,2.28-.06,6.43-.06,3.05,0,4.61,0,4.68.03.38.13.57.4.57.8,0,.59-.3.99-.91,1.2-.11.04-.77.06-1.97.06h-1.83l-.08.49c-.23,1.37-.34,2.5-.34,3.4,0,.99.08,1.88.26,2.66s.35,1.39.54,1.83c.19.44.29.7.29.8,0,.32-.13.63-.4.91-.27.28-.61.43-1.03.43-.21,0-.38-.03-.51-.08-.13-.06-.29-.29-.46-.69s-.32-.97-.46-1.71c-.02-.17-.03-.59-.03-1.26,0-.93.08-1.93.26-3,.17-1.07.34-1.94.51-2.63s.27-1.07.28-1.14h-2.8l-.03.11c0,.06-.18.81-.54,2.26s-.77,2.98-1.23,4.6c-.46,1.62-.75,2.54-.89,2.77-.21.53-.62.8-1.23.8Z"/>
            <path d="M1107.23,265.88c0-1.37.26-2.82.79-4.34.53-1.52,1.24-2.83,2.14-3.94.9-1.1,1.84-1.74,2.81-1.9h.16c.09,0,.18,0,.24-.02.73.05,1.29.38,1.7.99.53.81.79,1.89.79,3.25,0,1.55-.3,3.12-.91,4.72-.61,1.6-1.38,2.91-2.32,3.94s-1.84,1.54-2.71,1.54h-.14c-.48,0-.9-.14-1.25-.41-.35-.27-.61-.63-.79-1.07-.18-.44-.3-.89-.38-1.35-.08-.46-.12-.93-.12-1.41ZM1114.26,258.49c0-1.37-.36-2.06-1.07-2.06-.48,0-.96.3-1.41.91-.46.61-.83,1.29-1.13,2.06-.3.77-.53,1.44-.69,2.02-.16.58-.25.92-.26,1.01.66.01,1.31.02,1.96.02l1.96-.02s.07-.24.16-.67c.09-.43.2-.97.32-1.62.12-.65.18-1.2.16-1.66ZM1108.81,267.25c0,1.43.36,2.14,1.07,2.14.2,0,.42-.07.65-.2.23-.14.5-.39.83-.77.32-.38.65-.96.97-1.76.32-.79.65-1.78.97-2.95l.1-.34h-3.94s-.06.3-.18.77c-.12.47-.23,1-.32,1.57-.09.58-.14,1.09-.14,1.54Z"/>
            <path d="M1119.65,264.63v-.71c0-.48.15-.89.46-1.23s.71-.51,1.23-.51,1.01.24,1.43.71c.42.48.64,1.31.66,2.51,0,.67-.09,1.31-.26,1.94-.17.63-.37,1.17-.6,1.63-.23.46-.48.85-.74,1.17-.27.32-.5.58-.69.77s-.31.28-.37.26c-.08,0-.2-.09-.37-.26s-.26-.29-.26-.37.11-.23.31-.46c.21-.23.45-.51.71-.86.27-.34.51-.82.74-1.43.23-.61.38-1.31.46-2.09v-.34l-.03.03s-.09.04-.14.06-.11.05-.17.08-.14.06-.26.06-.23.01-.34.03c-.51,0-.93-.16-1.26-.49l-.51-.51Z"/>
            <path d="M1128.73,270.26s.1.02.17.06c.08.04.18.07.31.08s.25.03.34.03c.25,0,.48-.12.69-.37.21-.25.36-.52.46-.83.19-.51.51-1.97.97-4.37.46-2.4.89-4.68,1.31-6.85.42-2.17.63-3.26.63-3.28v-.09h-1.34c-.89,0-1.37-.02-1.43-.06-.08-.06-.11-.15-.11-.29l.2-.8c.04-.1.11-.14.23-.14s.56,0,1.34-.03c.91,0,1.37,0,1.37-.03,0-.04.09-.51.26-1.43s.28-1.47.34-1.66c.7-3.14,2.09-4.71,4.17-4.71.7.04,1.28.25,1.74.63.46.38.68.89.68,1.51,0,.69-.2,1.18-.6,1.48-.4.31-.8.47-1.2.49-.84,0-1.26-.4-1.26-1.2,0-.36.11-.68.31-.94s.44-.47.69-.6l.26-.14c-.3-.11-.59-.17-.86-.17-.23,0-.45.09-.66.28-.21.19-.35.46-.43.8-.13.55-.29,1.29-.46,2.23-.17.93-.32,1.72-.46,2.37-.13.65-.2.99-.2,1.03,0,.04.52.06,1.57.06.86,0,1.35,0,1.48.03.13.02.24.08.31.17.02.08,0,.24-.06.49-.06.25-.11.4-.14.46-.04.1-.12.14-.26.14s-.65,0-1.54.03h-1.6l-.66,3.49c-.91,4.72-1.55,7.67-1.91,8.85-.51,1.62-1.18,2.82-2,3.6-.7.61-1.4.91-2.08.91-.61,0-1.16-.18-1.66-.54-.5-.36-.74-.88-.74-1.54,0-.7.2-1.22.6-1.54.4-.32.8-.49,1.2-.49.84,0,1.26.4,1.26,1.2,0,.36-.1.68-.31.94-.21.27-.44.47-.69.6l-.26.14Z"/>
            <path d="M1160.7,310.05v-121.14h12.44v2.95h-9.49v115.25h9.49v2.95h-12.44Z"/>
            <path d="M1177.58,221.28c.08-.05,8.23-.08,24.44-.08h24.32l2.34,5.45c1.59,3.71,2.44,5.68,2.55,5.9h-1.61l-.28-.57c-.57-1.1-1.32-2.16-2.26-3.15-1.35-1.29-2.84-2.33-4.48-3.11-1.64-.78-3.54-1.36-5.7-1.74-2.15-.38-4.19-.6-6.1-.69s-4.38-.14-7.39-.16h-18.1l.32.44c12.47,17.05,18.73,25.65,18.78,25.81.03.05.03.13,0,.24-.08.08-3.64,4.15-10.66,12.2l-10.66,12.12s2.84.04,8.52.04h5.7c2.4,0,4.12.01,5.17.04,3.66,0,6.63-.07,8.89-.2,2.26-.13,4.51-.42,6.75-.85,2.23-.43,4.13-1.09,5.69-1.98,1.56-.89,2.95-2.06,4.16-3.51.57-.7,1.12-1.67,1.66-2.91h1.61s-.09.31-.28.85c-.19.54-.53,1.41-1.01,2.63s-.9,2.34-1.25,3.39l-2.34,6.26-24.28.04c-16.21,0-24.36-.03-24.44-.08-.16-.05-.24-.17-.24-.36,0-.05.03-.14.08-.24l21.53-24.64s-.44-.63-1.33-1.82c-.89-1.18-2.3-3.12-4.24-5.82-1.94-2.69-3.69-5.09-5.25-7.19l-10.75-14.75-.04-.61c0-.57.07-.89.2-.97Z"/>
            <path d="M1181.75,284.81s.7-.05,2.06-.14c1.35-.09,2.05-.15,2.08-.17.23,0,.34.09.34.26,0,.21-.34,1.65-1.03,4.31-.72,2.82-1.09,4.26-1.09,4.31,0,.04.07,0,.2-.14,1.16-1.03,2.4-1.54,3.71-1.54,1.03,0,1.86.26,2.48.77.63.51.95,1.27.97,2.25,0,.97-.36,2.48-1.09,4.51-.72,2.04-1.09,3.26-1.09,3.65.02.27.07.45.14.54.08.1.22.14.43.14.53,0,1.03-.29,1.48-.86.46-.57.83-1.35,1.11-2.34.06-.21.11-.33.17-.37s.21-.06.46-.06c.38,0,.57.08.57.23,0,.02-.04.16-.11.43-.31,1.12-.79,2.05-1.46,2.77-.65.82-1.42,1.23-2.31,1.23h-.14c-.89,0-1.54-.26-1.94-.77-.4-.51-.6-1.06-.6-1.63,0-.3.34-1.43,1.03-3.37.69-1.94,1.04-3.4,1.06-4.37,0-1.12-.42-1.68-1.26-1.68h-.14c-1.58,0-2.95.93-4.11,2.8l-.2.37-.97,3.86c-.61,2.48-.96,3.83-1.06,4.06-.25.51-.67.77-1.26.77-.27,0-.49-.09-.68-.26-.19-.17-.3-.34-.31-.51,0-.27.7-3.16,2.08-8.68l2.11-8.45c0-.25-.07-.4-.2-.46s-.5-.11-1.11-.14h-.6c-.11-.11-.17-.19-.17-.23s.02-.22.06-.54c.09-.36.22-.54.37-.54Z"/>
            <path d="M1195.89,294.41c0-.25.13-.44.4-.57h18.19c.29.15.43.34.43.57,0,.21-.13.39-.4.54l-9.08.03h-9.08c-.31-.1-.46-.29-.46-.57ZM1195.89,299.95c0-.29.15-.48.46-.57h18.16c.27.19.4.38.4.57,0,.25-.14.44-.43.57h-18.19c-.27-.13-.4-.32-.4-.57Z"/>
            <path d="M1222.59,287.81l-.37.14c-.27.09-.65.19-1.14.28-.5.1-1.05.16-1.66.2h-.54v-1.31h.54c.89-.04,1.72-.18,2.48-.43.76-.25,1.29-.47,1.6-.68.3-.21.57-.42.8-.63.04-.06.15-.08.34-.08.17,0,.33.06.49.17v8.54l.03,8.57c.13.13.25.22.34.26.09.04.32.08.69.11.36.04.95.06,1.77.06h.74v1.31h-.31c-.4-.06-1.91-.08-4.54-.08s-4.08.03-4.49.08h-.34v-1.31h1.83c.3,0,.54,0,.71-.03.17-.02.32-.05.46-.09.13-.04.21-.06.23-.06s.08-.05.17-.14c.09-.1.15-.13.17-.11v-14.76Z"/>
            <path d="M1179.9,194.93c-.65,0-.99-.04-1.03-.11-.02-.04-.03-.11-.03-.23,0-.46.1-.77.31-.94.04-.02.2-.03.49-.03.78.04,2.08.06,3.88.06h1.8c.55,0,.98,0,1.28-.03.31-.02.5-.02.57,0,.31,0,.46.1.46.29,0,.04-.02.17-.06.4-.09.32-.19.51-.28.57h-.4c-.08,0-.16.01-.26.03-.09.02-.18.02-.26,0-.74.02-1.22.05-1.43.08-.21.04-.38.14-.51.31-.06.08-.36,1.25-.91,3.51-.13.49-.28,1.05-.43,1.66-.15.61-.27,1.06-.34,1.34l-.11.43s1.38.06,4.14.06h4.14l.03-.08c0-.06.3-1.23.89-3.51.53-2.19.8-3.36.8-3.51s-.54-.25-1.63-.28c-.44,0-.72-.02-.86-.06-.13-.04-.2-.12-.2-.26,0-.04.02-.15.06-.34.08-.32.13-.5.17-.54s.19-.07.46-.09c.09,0,.49.01,1.2.03.7.02,1.6.03,2.68.03,1.18,0,2.09,0,2.71-.03.63-.02.97-.03,1.03-.03.32,0,.49.1.49.29,0,.51-.11.84-.34.97h-.4c-.08,0-.16.01-.26.03-.09.02-.18.02-.26,0-.74.02-1.22.05-1.43.08-.21.04-.38.14-.51.31-.06.09-.74,2.79-2.06,8.08-1.31,5.29-1.98,7.98-2,8.05,0,.13.04.2.11.2.15.06.67.11,1.54.14h.89c.11.15.17.24.17.26,0,.02-.03.19-.09.51-.08.25-.17.43-.29.54h-.43c-.7-.04-1.98-.06-3.83-.06h-3.11c-.32,0-.52,0-.6.03-.32,0-.49-.08-.49-.26,0-.1.03-.23.09-.4.09-.36.19-.56.28-.6.08-.02.22-.03.43-.03h.17c.51,0,1.09-.03,1.71-.08.11-.02.19-.03.23-.03.04,0,.1-.05.17-.14.08-.1.13-.18.17-.26.04-.08.1-.25.17-.51.08-.27.14-.53.2-.8.06-.27.16-.68.31-1.23.13-.53.24-.96.31-1.28.63-2.51.94-3.78.94-3.8,0-.02-1.38-.03-4.14-.03h-4.14l-.94,3.86c-.65,2.55-.97,3.88-.97,3.97,0,.13.08.22.23.26.15.04.63.07,1.43.08h.89c.11.15.17.24.17.26,0,.02-.03.19-.08.51-.08.25-.17.43-.29.54h-.43c-.7-.04-1.98-.06-3.83-.06h-3.11c-.32,0-.52,0-.6.03-.32,0-.49-.08-.49-.26,0-.04.03-.17.08-.4.1-.36.19-.56.29-.6.08-.02.22-.03.43-.03h.17c.51,0,1.09-.03,1.71-.08.27-.06.45-.17.54-.34.06-.08.74-2.72,2.06-7.94,1.31-5.22,1.97-7.97,1.97-8.25,0-.13-.54-.22-1.63-.26Z"/>
            <path d="M1201.15,206.35v-.37c0-.25.13-.44.4-.57h16.59c.29.15.43.34.43.57s-.14.42-.43.57h-16.59c-.27-.13-.4-.32-.4-.57v.37Z"/>
            <path d="M1227.05,196.61l-.37.14c-.27.09-.65.19-1.14.28-.5.1-1.05.16-1.66.2h-.54v-1.31h.54c.89-.04,1.72-.18,2.48-.43.76-.25,1.3-.48,1.6-.69.31-.21.57-.42.8-.63.04-.06.15-.09.34-.09.17,0,.33.06.49.17v8.54l.03,8.57c.13.13.25.22.34.26.09.04.32.08.68.11s.95.06,1.77.06h.74v1.31h-.31c-.4-.06-1.91-.08-4.54-.08s-4.08.03-4.48.08h-.34v-1.31h1.83c.3,0,.54,0,.71-.03.17-.02.32-.05.46-.09.13-.04.21-.06.23-.06s.08-.05.17-.14c.1-.09.15-.13.17-.11v-14.77Z"/>
            <path d="M1243.24,249.52c-.54,0-.81-.12-.81-.36,0-.46.2-1.08.6-1.86.41-.78.94-1.6,1.62-2.46.67-.86,1.52-1.57,2.55-2.14,1.02-.57,2.06-.87,3.11-.93.73,0,1.17.01,1.33.04,1.29.3,2.36,1.02,3.19,2.18.84,1.16,1.55,2.92,2.14,5.29.38,1.62.57,2.76.57,3.43,0,.11.01.16.04.16l.48-1.09c.54-1.37,1.14-2.81,1.82-4.32.67-1.51,1.25-2.73,1.74-3.68.48-.94.78-1.47.89-1.57.05-.03.27-.04.65-.04h.52c.16.16.24.28.24.36,0,.11-.28.7-.85,1.78-.57,1.08-1.36,2.79-2.38,5.13-1.02,2.34-1.99,4.77-2.91,7.27-.16.43-.34,1.31-.53,2.63-.19,1.32-.47,2.75-.85,4.28-.43,1.75-.79,2.96-1.09,3.63-.3.67-.66,1.02-1.09,1.05-.46,0-.69-.38-.69-1.13,0-1.35.73-4.31,2.18-8.89l.24-.77.04-.73c.03-.27.04-.69.04-1.25,0-4.23-.77-7.15-2.3-8.77-1.08-1.02-2.35-1.54-3.84-1.54-1.29,0-2.48.35-3.55,1.05-1.08.7-1.85,1.63-2.3,2.79-.05.24-.11.36-.16.36-.05.05-.27.08-.65.08Z"/>
            <path d="M1271.24,223.38s.7-.05,2.06-.14c1.35-.1,2.05-.15,2.09-.17.23,0,.34.08.34.26,0,.21-.34,1.65-1.03,4.31-.72,2.82-1.09,4.26-1.09,4.31,0,.04.07,0,.2-.14,1.16-1.03,2.4-1.54,3.71-1.54,1.03,0,1.86.26,2.48.77.63.51.95,1.27.97,2.26,0,.97-.36,2.48-1.09,4.51-.72,2.04-1.09,3.26-1.09,3.66.02.27.07.45.14.54.08.09.22.14.43.14.53,0,1.03-.28,1.48-.86.46-.57.83-1.35,1.12-2.34.06-.21.11-.33.17-.37.06-.04.21-.06.46-.06.38,0,.57.08.57.23,0,.02-.04.16-.11.43-.31,1.12-.79,2.05-1.46,2.77-.65.82-1.42,1.23-2.31,1.23h-.14c-.89,0-1.54-.26-1.94-.77s-.6-1.06-.6-1.63c0-.31.34-1.43,1.03-3.37.69-1.94,1.04-3.4,1.06-4.37,0-1.12-.42-1.68-1.26-1.68h-.14c-1.58,0-2.95.93-4.11,2.8l-.2.37-.97,3.85c-.61,2.48-.96,3.83-1.06,4.06-.25.51-.67.77-1.26.77-.27,0-.5-.08-.69-.26s-.3-.34-.31-.51c0-.27.7-3.16,2.09-8.68l2.11-8.45c0-.25-.07-.4-.2-.46-.13-.06-.5-.11-1.12-.14h-.6c-.11-.11-.17-.19-.17-.23s.02-.22.06-.54c.1-.36.22-.54.37-.54Z"/>
            <path d="M1286.64,247.98c.03-.08.05-.19.08-.32.03-.14.09-.43.2-.89.11-.46.24-.88.41-1.25s.36-.82.61-1.33c.24-.51.51-.92.81-1.21.3-.3.65-.59,1.05-.89.4-.3.85-.42,1.33-.36.78,0,1.47.16,2.06.48.59.32,1.01.62,1.25.89.24.27.39.54.44.81.05.16.09.24.12.24s.13-.09.32-.28c1.29-1.4,2.79-2.1,4.49-2.1h.12c1.29,0,2.26.55,2.91,1.66.21.51.32,1.01.32,1.5,0,.81-.18,1.45-.52,1.94-.35.48-.7.79-1.05.93-.35.14-.69.19-1.01.16-.54,0-.97-.15-1.29-.44-.32-.3-.48-.69-.48-1.17,0-1.29.75-2.15,2.26-2.58-.59-.35-1.08-.53-1.45-.53-1.51,0-2.89,1-4.16,2.99-.27.43-.47.87-.61,1.33-.13.46-.59,2.25-1.37,5.37-.92,3.77-1.44,5.78-1.57,6.02-.35.73-.93,1.09-1.74,1.09-.35,0-.63-.08-.85-.24-.22-.16-.36-.32-.44-.48s-.11-.3-.08-.4c0-.35.54-2.67,1.61-6.95,1.08-4.28,1.62-6.67,1.62-7.15,0-1.05-.35-1.57-1.05-1.57-.57,0-1.05.38-1.45,1.13-.41.76-.73,1.58-.97,2.46-.24.89-.39,1.38-.44,1.45-.05.05-.27.08-.65.08h-.57c-.16-.16-.24-.28-.24-.36Z"/>
            <path d="M1314.55,249.48c0-1.86.13-3.62.4-5.29.27-1.67.58-3.11.93-4.32.35-1.21.85-2.4,1.5-3.55.65-1.16,1.16-2.06,1.53-2.71.38-.65.94-1.35,1.7-2.1s1.2-1.21,1.33-1.37c.13-.16.47-.44,1.01-.85h.69c.38,0,.57.12.57.36,0,.08-.23.36-.69.85-.46.48-1.01,1.2-1.66,2.14s-1.31,2.1-1.98,3.47-1.24,3.23-1.7,5.57c-.46,2.34-.69,4.94-.69,7.8s.23,5.44.69,7.76c.46,2.32,1.01,4.19,1.66,5.61s1.31,2.58,1.98,3.47c.67.89,1.24,1.6,1.7,2.14s.69.82.69.85c0,.24-.2.36-.6.36h-.65l-1.13-.97c-2.53-2.29-4.38-5.14-5.53-8.56-1.16-3.42-1.74-6.97-1.74-10.66Z"/>
            <path d="M1331.75,247.9c0-.86.21-1.74.65-2.62.43-.89,1.18-1.71,2.26-2.46,1.08-.76,2.38-1.12,3.92-1.09,1.67,0,2.88.36,3.64,1.09.75.73,1.14,1.53,1.17,2.42,0,.86-.23,1.5-.69,1.9s-.97.62-1.54.65c-.35,0-.67-.11-.97-.32-.3-.22-.46-.57-.49-1.05,0-.43.12-.81.36-1.13.24-.32.47-.57.69-.73.21-.16.39-.24.53-.24.03,0,.04-.01.04-.04,0-.08-.09-.2-.28-.36-.19-.16-.53-.31-1.01-.44-.48-.14-1.01-.22-1.57-.24-1.29,0-2.24.35-2.83,1.05-.59.7-.9,1.41-.93,2.14,0,.67.26,1.15.77,1.41.51.27,1.25.5,2.22.69.97.19,1.67.39,2.1.61,1.78.78,2.67,2.07,2.67,3.88,0,.75-.15,1.51-.44,2.26-.3.75-.74,1.51-1.33,2.26-.59.75-1.44,1.35-2.55,1.78s-2.37.66-3.8.69c-2.07,0-3.54-.39-4.4-1.17-.86-.78-1.31-1.7-1.33-2.75,0-1.05.28-1.8.85-2.26s1.16-.69,1.78-.69c.41,0,.78.12,1.13.36.35.24.54.66.57,1.25,0,.7-.24,1.29-.73,1.78-.48.48-.9.73-1.25.73-.05.03-.09.04-.12.04s-.04.03-.04.08c.03.08.13.19.32.32.19.14.61.31,1.25.53.65.22,1.39.31,2.22.28.97,0,1.8-.15,2.51-.44.7-.3,1.21-.67,1.53-1.13.32-.46.55-.88.69-1.25.13-.38.2-.71.2-1.01,0-.75-.28-1.32-.85-1.7s-1.21-.61-1.94-.69-1.52-.28-2.38-.6c-.86-.32-1.49-.79-1.9-1.41-.46-.67-.69-1.45-.69-2.34Z"/>
            <path d="M1350.65,246.13s.7-.05,2.06-.14c1.35-.1,2.05-.15,2.08-.17.23,0,.34.08.34.26,0,.21-.34,1.65-1.03,4.31-.73,2.82-1.09,4.26-1.09,4.31,0,.04.07,0,.2-.14,1.16-1.03,2.4-1.54,3.71-1.54,1.03,0,1.86.26,2.48.77.63.51.95,1.27.97,2.26,0,.97-.36,2.48-1.09,4.51-.72,2.04-1.09,3.26-1.09,3.66.02.27.07.45.14.54.08.09.22.14.43.14.53,0,1.03-.28,1.48-.86s.83-1.35,1.11-2.34c.06-.21.11-.33.17-.37.06-.04.21-.06.46-.06.38,0,.57.08.57.23,0,.02-.04.16-.11.43-.3,1.12-.79,2.05-1.46,2.77-.65.82-1.42,1.23-2.31,1.23h-.14c-.89,0-1.54-.26-1.94-.77-.4-.51-.6-1.06-.6-1.63,0-.31.34-1.43,1.03-3.37.69-1.94,1.04-3.4,1.06-4.37,0-1.12-.42-1.69-1.26-1.69h-.14c-1.58,0-2.95.93-4.11,2.8l-.2.37-.97,3.85c-.61,2.48-.96,3.83-1.05,4.06-.25.51-.67.77-1.26.77-.27,0-.5-.08-.69-.26s-.3-.34-.31-.51c0-.27.7-3.16,2.09-8.68l2.11-8.45c0-.25-.07-.4-.2-.46-.13-.06-.5-.11-1.11-.14h-.6c-.11-.11-.17-.19-.17-.23,0-.04.02-.22.06-.54.1-.36.22-.54.37-.54Z"/>
            <path d="M1368.36,258.16v-1.01c0-.67.22-1.25.65-1.74.43-.49,1.01-.73,1.74-.73s1.43.34,2.02,1.01c.59.67.9,1.86.93,3.55,0,.94-.12,1.86-.36,2.75-.24.89-.53,1.66-.85,2.3-.32.65-.67,1.2-1.05,1.66s-.7.82-.97,1.09-.44.39-.52.36c-.11,0-.28-.12-.53-.36s-.36-.42-.36-.53.15-.32.44-.65c.3-.32.63-.73,1.01-1.21s.73-1.16,1.05-2.02c.32-.86.54-1.84.65-2.95v-.49l-.04.04c-.05.03-.12.05-.2.08-.08.03-.16.07-.24.12s-.2.08-.36.08-.32.01-.48.04c-.73,0-1.32-.23-1.78-.69l-.73-.73Z"/>
            <path d="M1384.51,253.23c0-2.72,1.02-5.3,3.07-7.76,2.05-2.45,4.35-3.69,6.91-3.72,1.37,0,2.59.66,3.64,1.98.43-.81,1.05-1.21,1.86-1.21.35,0,.66.11.93.32s.4.48.4.81c0,.35-.5,2.5-1.49,6.46-1,3.96-1.51,6.19-1.54,6.7,0,.67.09,1.12.28,1.33.19.21.47.34.85.36.24-.03.51-.15.81-.36.57-.54,1.12-1.83,1.66-3.88.16-.54.3-.82.41-.85.05-.03.19-.04.4-.04h.16c.51,0,.77.12.77.36,0,.16-.07.52-.2,1.09-.13.57-.4,1.29-.81,2.18-.4.89-.83,1.56-1.29,2.02-.35.35-.78.63-1.29.85-.22.05-.54.08-.97.08-.92,0-1.68-.2-2.3-.61s-1.02-.82-1.21-1.25l-.24-.6s-.08-.01-.16.04c-.05.05-.11.11-.16.16-1.59,1.51-3.21,2.26-4.85,2.26-1.48,0-2.79-.54-3.92-1.62-1.13-1.08-1.7-2.79-1.7-5.13ZM1397.36,246.32c0-.16-.07-.46-.2-.89-.13-.43-.44-.9-.93-1.41-.48-.51-1.1-.78-1.86-.81-.94,0-1.84.42-2.71,1.25-.86.83-1.54,1.93-2.02,3.27-.78,2.13-1.33,4.33-1.66,6.62v.44c0,.21-.01.38-.04.48,0,1.21.24,2.05.73,2.51.48.46,1.06.7,1.74.73,1.02,0,2.03-.44,3.03-1.33s1.59-1.57,1.78-2.06c.05-.11.42-1.55,1.09-4.32.67-2.77,1.02-4.27,1.05-4.48Z"/>
            <path d="M1409.79,246.13s.7-.05,2.06-.14c1.35-.1,2.05-.15,2.09-.17.23,0,.34.08.34.26,0,.21-.34,1.65-1.03,4.31-.72,2.82-1.09,4.26-1.09,4.31,0,.04.07,0,.2-.14,1.16-1.03,2.4-1.54,3.71-1.54,1.03,0,1.86.26,2.48.77.63.51.95,1.27.97,2.26,0,.97-.36,2.48-1.09,4.51-.72,2.04-1.09,3.26-1.09,3.66.02.27.07.45.14.54.08.09.22.14.43.14.53,0,1.03-.28,1.49-.86.46-.57.83-1.35,1.11-2.34.06-.21.11-.33.17-.37.06-.04.21-.06.46-.06.38,0,.57.08.57.23,0,.02-.04.16-.11.43-.31,1.12-.79,2.05-1.46,2.77-.65.82-1.42,1.23-2.31,1.23h-.14c-.89,0-1.54-.26-1.94-.77-.4-.51-.6-1.06-.6-1.63,0-.31.34-1.43,1.03-3.37.69-1.94,1.04-3.4,1.06-4.37,0-1.12-.42-1.69-1.26-1.69h-.14c-1.58,0-2.95.93-4.11,2.8l-.2.37-.97,3.85c-.61,2.48-.96,3.83-1.06,4.06-.25.51-.67.77-1.26.77-.27,0-.49-.08-.69-.26-.19-.17-.29-.34-.31-.51,0-.27.7-3.16,2.08-8.68l2.11-8.45c0-.25-.07-.4-.2-.46-.13-.06-.5-.11-1.11-.14h-.6c-.11-.11-.17-.19-.17-.23,0-.04.02-.22.06-.54.09-.36.22-.54.37-.54Z"/>
            <path d="M1426.77,229.32l.16-.04h.89l1.13.97c2.53,2.29,4.38,5.14,5.53,8.56,1.16,3.42,1.74,6.97,1.74,10.66,0,1.83-.14,3.59-.41,5.29-.27,1.7-.58,3.14-.93,4.32s-.85,2.37-1.49,3.55-1.16,2.09-1.54,2.71c-.38.62-.93,1.31-1.66,2.06s-1.16,1.2-1.29,1.33c-.14.13-.44.39-.93.77-.08.08-.13.14-.16.16h-.93c-.08,0-.15-.04-.2-.12-.05-.08-.09-.2-.12-.36.03-.03.18-.2.44-.53,4.17-4.34,6.26-10.73,6.26-19.19s-2.09-14.85-6.26-19.19c-.27-.32-.42-.5-.44-.53,0-.22.07-.36.2-.44Z"/>
            <path d="M1451.3,250v-.52c0-.35.19-.62.57-.81h12.08v-6.06l.04-6.06c.27-.35.53-.53.77-.53.35,0,.62.2.81.61v12.04h12.04c.4.21.61.48.61.81s-.2.59-.61.81h-12.04v12.04c-.21.38-.46.57-.73.57h-.16c-.32,0-.57-.19-.73-.57v-12.04h-12.08c-.38-.19-.57-.46-.57-.81v.52Z"/>
            <path d="M1490.7,249.52c-.54,0-.81-.12-.81-.36,0-.46.2-1.08.61-1.86.4-.78.94-1.6,1.61-2.46.67-.86,1.52-1.57,2.55-2.14,1.02-.57,2.06-.87,3.11-.93.73,0,1.17.01,1.33.04,1.29.3,2.36,1.02,3.19,2.18.83,1.16,1.55,2.92,2.14,5.29.38,1.62.57,2.76.57,3.43,0,.11.02.16.04.16l.48-1.09c.54-1.37,1.15-2.81,1.82-4.32.67-1.51,1.25-2.73,1.74-3.68.48-.94.78-1.47.89-1.57.05-.03.27-.04.65-.04h.53c.16.16.24.28.24.36,0,.11-.28.7-.85,1.78-.57,1.08-1.36,2.79-2.38,5.13-1.02,2.34-1.99,4.77-2.91,7.27-.16.43-.34,1.31-.53,2.63-.19,1.32-.47,2.75-.85,4.28-.43,1.75-.79,2.96-1.09,3.63-.3.67-.66,1.02-1.09,1.05-.46,0-.69-.38-.69-1.13,0-1.35.73-4.31,2.18-8.89l.24-.77.04-.73c.03-.27.04-.69.04-1.25,0-4.23-.77-7.15-2.3-8.77-1.08-1.02-2.36-1.54-3.84-1.54-1.29,0-2.48.35-3.55,1.05-1.08.7-1.84,1.63-2.3,2.79-.05.24-.11.36-.16.36-.05.05-.27.08-.65.08Z"/>
            <path d="M1521.29,224.7c-.65,0-.99-.04-1.03-.11-.02-.04-.03-.11-.03-.23,0-.46.11-.77.31-.94.04-.02.2-.03.49-.03.78.04,2.08.06,3.88.06h1.8c.55,0,.98,0,1.28-.03.31-.02.5-.02.57,0,.31,0,.46.09.46.28,0,.04-.02.17-.06.4-.09.32-.19.51-.28.57h-.4c-.08,0-.16,0-.26.03-.09.02-.18.02-.26,0-.74.02-1.22.05-1.43.08-.21.04-.38.14-.51.31-.06.08-.36,1.25-.91,3.51-.13.49-.28,1.05-.43,1.66s-.27,1.06-.34,1.34l-.11.43s1.38.06,4.14.06h4.14l.03-.08c0-.06.3-1.23.89-3.51.53-2.19.8-3.36.8-3.51s-.54-.25-1.63-.28c-.44,0-.73-.02-.86-.06-.13-.04-.2-.12-.2-.26,0-.04.02-.15.06-.34.08-.32.13-.5.17-.54s.19-.07.46-.08c.1,0,.5,0,1.2.03s1.6.03,2.68.03c1.18,0,2.09,0,2.71-.03.63-.02.97-.03,1.03-.03.32,0,.49.09.49.28,0,.51-.11.84-.34.97h-.4c-.08,0-.16,0-.26.03-.09.02-.18.02-.26,0-.74.02-1.22.05-1.43.08s-.38.14-.51.31c-.06.1-.74,2.79-2.06,8.08-1.31,5.29-1.98,7.98-2,8.05,0,.13.04.2.11.2.15.06.67.11,1.54.14h.89c.11.15.17.24.17.26s-.03.19-.08.51c-.08.25-.17.43-.29.54h-.43c-.7-.04-1.98-.06-3.83-.06h-3.11c-.32,0-.52,0-.6.03-.32,0-.49-.08-.49-.26,0-.1.03-.23.08-.4.1-.36.19-.56.29-.6.08-.02.22-.03.43-.03h.17c.51,0,1.09-.03,1.71-.08.11-.02.19-.03.23-.03.04,0,.1-.05.17-.14.08-.1.13-.18.17-.26.04-.08.1-.25.17-.51.08-.27.14-.53.2-.8.06-.27.16-.68.31-1.23.13-.53.24-.96.31-1.28.63-2.51.94-3.78.94-3.8s-1.38-.03-4.14-.03h-4.14l-.94,3.86c-.65,2.55-.97,3.88-.97,3.97,0,.13.08.22.23.26s.63.07,1.43.08h.89c.11.15.17.24.17.26s-.03.19-.08.51c-.08.25-.17.43-.29.54h-.43c-.7-.04-1.98-.06-3.83-.06h-3.11c-.32,0-.52,0-.6.03-.32,0-.49-.08-.49-.26,0-.04.03-.17.08-.4.1-.36.19-.56.29-.6.08-.02.22-.03.43-.03h.17c.51,0,1.09-.03,1.71-.08.27-.06.45-.17.54-.34.06-.08.74-2.72,2.06-7.94,1.31-5.22,1.97-7.97,1.97-8.25,0-.13-.54-.22-1.63-.26Z"/>
            <path d="M1544.26,233.4c0-.59.17-1.06.52-1.41h.44c1.13.08,2.55.12,4.24.12,3.18,0,5.05-.04,5.61-.12h.41c.16.16.24.28.24.36s-.03.32-.08.73c-.13.4-.25.66-.36.77h-.85c-.59.05-1,.08-1.21.08-.78.14-1.21.34-1.29.61,0,.05.39,3.43,1.17,10.14.78,6.7,1.18,10.08,1.21,10.14l2.95-4.73c1.97-3.15,3.93-6.33,5.9-9.53,1.96-3.2,2.97-4.86,3.03-4.97.11-.19.16-.39.16-.6,0-.65-.59-1.02-1.78-1.13-.48,0-.73-.15-.73-.44,0-.03.03-.2.08-.53.08-.38.16-.62.24-.73s.26-.16.52-.16h.49c.27,0,.73.01,1.37.04.65.03,1.51.04,2.58.04,1.86,0,3.03-.03,3.52-.08h.28c.19.19.28.34.28.44,0,.46-.12.89-.36,1.29-.08.08-.31.12-.69.12-.35.03-.67.05-.97.08-.3.03-.58.09-.85.2-.27.11-.48.2-.65.28-.16.08-.32.19-.48.32-.16.14-.3.23-.4.28-.11.05-.22.18-.32.36s-.2.28-.28.28l-7.8,12.52c-4.85,7.84-7.35,11.85-7.51,12.04-.08.05-.18.12-.28.2l-.73.04h-.28c-.48,0-.73-.09-.73-.28-.08-.16-.6-4.47-1.57-12.93-1.02-8.56-1.55-12.89-1.57-12.97-.14-.3-.97-.44-2.51-.44h-.69c-.19-.13-.28-.28-.28-.44Z"/>
            <path d="M1580.72,241.12c-.65,0-.97-.31-.97-.94v-.31l.37-.8c1.43-3.01,2.46-5.61,3.11-7.8l.23-.69h-.91c-.72,0-1.24.03-1.54.08-.31.06-.68.24-1.12.54-.21.13-.42.31-.63.51s-.39.41-.54.6c-.15.19-.24.3-.26.34-.04.02-.18.03-.43.03-.36,0-.54-.1-.54-.29,0-.11.18-.45.54-1s.89-1.14,1.57-1.77c.69-.63,1.36-.99,2.03-1.09.13-.04,2.28-.06,6.43-.06,3.05,0,4.61,0,4.68.03.38.13.57.4.57.8,0,.59-.31.99-.92,1.2-.11.04-.77.06-1.97.06h-1.83l-.08.48c-.23,1.37-.34,2.5-.34,3.4,0,.99.08,1.88.26,2.66.17.78.35,1.39.54,1.83.19.44.29.7.29.8,0,.32-.13.63-.4.91-.27.29-.61.43-1.03.43-.21,0-.38-.03-.51-.09s-.29-.29-.46-.69-.32-.97-.46-1.71c-.02-.17-.03-.59-.03-1.26,0-.93.08-1.93.26-3s.34-1.94.51-2.63.27-1.07.29-1.14h-2.8l-.03.11c0,.06-.18.81-.54,2.26s-.77,2.98-1.23,4.6c-.46,1.62-.75,2.54-.89,2.77-.21.53-.62.8-1.23.8Z"/>
            <path d="M1594.88,241.05c0-1.37.26-2.82.79-4.34.53-1.52,1.24-2.83,2.14-3.94.9-1.1,1.84-1.74,2.81-1.9h.16c.09,0,.18,0,.24-.02.73.05,1.29.38,1.7.99.53.81.79,1.89.79,3.25,0,1.55-.3,3.12-.91,4.72-.61,1.6-1.38,2.91-2.32,3.94s-1.84,1.53-2.71,1.53h-.14c-.48,0-.9-.13-1.25-.4-.35-.27-.61-.63-.79-1.07-.17-.44-.3-.89-.38-1.35s-.12-.93-.12-1.41ZM1601.91,233.66c0-1.37-.36-2.06-1.07-2.06-.48,0-.96.3-1.41.91-.46.6-.83,1.29-1.13,2.06s-.53,1.44-.69,2.02c-.16.58-.25.92-.26,1.01.66.01,1.31.02,1.96.02l1.96-.02s.07-.24.16-.67.2-.97.32-1.62c.12-.65.17-1.2.16-1.65ZM1596.46,242.42c0,1.43.36,2.14,1.07,2.14.2,0,.42-.07.64-.2.23-.13.5-.39.83-.77.32-.38.65-.96.97-1.76.32-.79.65-1.78.97-2.95l.1-.34h-3.94s-.06.3-.18.77-.23.99-.32,1.57c-.09.58-.14,1.09-.14,1.53Z"/>
            <path d="M1574.01,268.36c0,.46.1.87.29,1.23s.41.63.66.8c.25.17.51.31.8.43.28.11.51.18.69.2s.29.03.37.03l.06-.03,2.29-9.08c1.47-5.94,2.24-8.99,2.31-9.14.06-.09.12-.15.2-.17s.28-.04.6-.06.53,0,.63.03c.09.04.16.08.2.14.04.06.07.1.08.14,0,.09-.75,3.15-2.25,9.17-1.51,6.02-2.27,9.03-2.29,9.05,0,.04.08.06.26.06.99-.11,1.93-.45,2.83-1s1.62-1.17,2.17-1.86c.55-.69.99-1.35,1.31-2,.32-.65.48-1.15.48-1.51,0-.31-.11-.56-.34-.77-.23-.21-.5-.38-.8-.51s-.57-.33-.8-.6c-.23-.27-.35-.6-.37-1,0-.57.25-1.12.74-1.66.49-.53,1.06-.8,1.68-.8.51,0,1,.22,1.46.66.46.44.69,1.12.69,2.06,0,.53-.08,1.21-.26,2.03-.17.82-.33,1.41-.49,1.77-.67,1.92-1.89,3.51-3.65,4.77-1.77,1.26-3.46,1.89-5.06,1.89h-.23l-.66,2.66c-.46,1.81-.7,2.72-.71,2.74-.09.1-.37.14-.83.14h-.29c-.38,0-.57-.13-.57-.4,0-.02.09-.44.28-1.26.19-.82.4-1.65.63-2.48.23-.84.35-1.31.37-1.4,0-.04-.03-.06-.08-.06-.73,0-1.63-.16-2.71-.49s-1.89-.81-2.43-1.46c-.55-.67-.83-1.47-.83-2.4,0-.67.33-1.89,1-3.68.67-1.79,1.01-2.87,1.03-3.23,0-.25-.08-.37-.26-.37-.51,0-1.01.25-1.48.74-.48.5-.85,1.15-1.11,1.97-.1.34-.18.54-.26.6s-.27.09-.57.09h-.49c-.38,0-.57-.13-.57-.4,0-.19.09-.5.29-.94.19-.44.47-.93.86-1.48s.88-1.03,1.49-1.43c.61-.4,1.3-.6,2.08-.6.91,0,1.71.23,2.4.69.69.46,1.03,1.09,1.03,1.89,0,.36-.31,1.33-.92,2.91-.61,1.58-.92,2.71-.94,3.4Z"/>
            <path d="M1617.63,249.48c0-1.86.14-3.62.41-5.29.27-1.67.58-3.11.93-4.32.35-1.21.85-2.4,1.49-3.55.65-1.16,1.16-2.06,1.54-2.71s.94-1.35,1.7-2.1c.75-.75,1.2-1.21,1.33-1.37.14-.16.47-.44,1.01-.85h.69c.38,0,.57.12.57.36,0,.08-.23.36-.69.85-.46.48-1.01,1.2-1.66,2.14s-1.31,2.1-1.98,3.47c-.67,1.37-1.24,3.23-1.7,5.57-.46,2.34-.69,4.94-.69,7.8s.23,5.44.69,7.76c.46,2.32,1.01,4.19,1.66,5.61.65,1.43,1.31,2.58,1.98,3.47s1.24,1.6,1.7,2.14.69.82.69.85c0,.24-.2.36-.61.36h-.65l-1.13-.97c-2.53-2.29-4.38-5.14-5.53-8.56-1.16-3.42-1.74-6.97-1.74-10.66Z"/>
            <path d="M1634.84,247.9c0-.86.21-1.74.65-2.62.43-.89,1.18-1.71,2.26-2.46,1.08-.76,2.38-1.12,3.92-1.09,1.67,0,2.88.36,3.63,1.09.76.73,1.15,1.53,1.17,2.42,0,.86-.23,1.5-.69,1.9s-.97.62-1.54.65c-.35,0-.67-.11-.97-.32-.3-.22-.46-.57-.48-1.05,0-.43.12-.81.36-1.13.24-.32.47-.57.69-.73.22-.16.39-.24.53-.24.03,0,.04-.01.04-.04,0-.08-.09-.2-.28-.36-.19-.16-.53-.31-1.01-.44-.49-.14-1.01-.22-1.58-.24-1.29,0-2.23.35-2.83,1.05-.59.7-.9,1.41-.93,2.14,0,.67.26,1.15.77,1.41.51.27,1.25.5,2.22.69.97.19,1.67.39,2.1.61,1.78.78,2.67,2.07,2.67,3.88,0,.75-.15,1.51-.44,2.26-.3.75-.74,1.51-1.33,2.26-.59.75-1.44,1.35-2.55,1.78s-2.37.66-3.8.69c-2.07,0-3.54-.39-4.4-1.17-.86-.78-1.31-1.7-1.33-2.75,0-1.05.28-1.8.85-2.26.57-.46,1.16-.69,1.78-.69.4,0,.78.12,1.13.36.35.24.54.66.57,1.25,0,.7-.24,1.29-.73,1.78-.49.48-.9.73-1.25.73-.05.03-.09.04-.12.04-.03,0-.04.03-.04.08.03.08.14.19.32.32.19.14.6.31,1.25.53.65.22,1.39.31,2.22.28.97,0,1.8-.15,2.5-.44.7-.3,1.21-.67,1.54-1.13.32-.46.55-.88.69-1.25.13-.38.2-.71.2-1.01,0-.75-.28-1.32-.85-1.7-.57-.38-1.21-.61-1.94-.69s-1.52-.28-2.38-.6c-.86-.32-1.49-.79-1.9-1.41-.46-.67-.69-1.45-.69-2.34Z"/>
            <path d="M1656.33,247.44c-.65,0-.99-.04-1.03-.11-.02-.04-.03-.11-.03-.23,0-.46.11-.77.31-.94.04-.02.2-.03.49-.03.78.04,2.08.06,3.88.06h1.8c.55,0,.98,0,1.28-.03s.5-.02.57,0c.31,0,.46.09.46.28,0,.04-.02.17-.06.4-.09.32-.19.51-.28.57h-.4c-.08,0-.16,0-.26.03-.09.02-.18.02-.26,0-.74.02-1.22.05-1.43.08-.21.04-.38.14-.51.31-.06.08-.36,1.25-.91,3.51-.13.5-.28,1.05-.43,1.66s-.27,1.06-.34,1.34l-.11.43s1.38.06,4.14.06h4.14l.03-.08c0-.06.3-1.23.89-3.51.53-2.19.8-3.36.8-3.51s-.54-.25-1.63-.28c-.44,0-.72-.02-.86-.06-.13-.04-.2-.12-.2-.26,0-.04.02-.15.06-.34.08-.32.13-.5.17-.54s.19-.07.46-.08c.09,0,.49,0,1.2.03s1.6.03,2.68.03c1.18,0,2.09,0,2.71-.03.63-.02.97-.03,1.03-.03.32,0,.49.09.49.28,0,.51-.11.84-.34.97h-.4c-.08,0-.16,0-.26.03-.09.02-.18.02-.26,0-.74.02-1.22.05-1.43.08-.21.04-.38.14-.51.31-.06.1-.74,2.79-2.06,8.08-1.31,5.29-1.98,7.98-2,8.05,0,.13.04.2.11.2.15.06.67.11,1.54.14h.89c.11.15.17.24.17.26s-.03.19-.08.51c-.08.25-.17.43-.29.54h-.43c-.7-.04-1.98-.06-3.83-.06h-3.11c-.32,0-.52,0-.6.03-.32,0-.49-.08-.49-.26,0-.09.03-.23.09-.4.09-.36.19-.56.28-.6.08-.02.22-.03.43-.03h.17c.51,0,1.09-.03,1.71-.08.11-.02.19-.03.23-.03.04,0,.1-.05.17-.14.08-.1.13-.18.17-.26.04-.08.1-.25.17-.51.08-.27.14-.53.2-.8.06-.27.16-.68.31-1.23.13-.53.24-.96.31-1.28.63-2.51.94-3.78.94-3.8s-1.38-.03-4.14-.03h-4.14l-.94,3.85c-.65,2.55-.97,3.88-.97,3.97,0,.13.08.22.23.26.15.04.63.07,1.43.08h.89c.11.15.17.24.17.26s-.03.19-.08.51c-.08.25-.17.43-.29.54h-.43c-.7-.04-1.98-.06-3.83-.06h-3.11c-.32,0-.52,0-.6.03-.32,0-.49-.08-.49-.26,0-.04.03-.17.08-.4.1-.36.19-.56.29-.6.08-.02.22-.03.43-.03h.17c.51,0,1.09-.03,1.71-.08.27-.06.45-.17.54-.34.06-.08.74-2.72,2.06-7.94,1.31-5.22,1.97-7.97,1.97-8.25,0-.13-.54-.22-1.63-.26Z"/>
            <path d="M1679.63,229.32l.16-.04h.89l1.13.97c2.53,2.29,4.38,5.14,5.53,8.56,1.16,3.42,1.74,6.97,1.74,10.66,0,1.83-.14,3.59-.41,5.29-.27,1.7-.58,3.14-.93,4.32-.35,1.18-.85,2.37-1.49,3.55-.65,1.18-1.16,2.09-1.54,2.71-.38.62-.93,1.31-1.66,2.06s-1.16,1.2-1.29,1.33c-.14.13-.44.39-.93.77l-.16.16h-.93c-.08,0-.15-.04-.2-.12-.05-.08-.09-.2-.12-.36.03-.03.18-.2.44-.53,4.17-4.34,6.26-10.73,6.26-19.19s-2.09-14.85-6.26-19.19c-.27-.32-.42-.5-.44-.53,0-.22.07-.36.2-.44Z"/>
            <path d="M1693.12,191.85v-2.95h12.44v121.14h-12.44v-2.95h9.49v-115.25h-9.49Z"/>
          </g>
        </g>
      </g>
    </g>
  </g>
</svg>