<svg xmlns="http://www.w3.org/2000/svg" xmlns:xlink="http://www.w3.org/1999/xlink" width="1920" zoomAndPan="magnify" viewBox="0 0 1440 254.250006" height="339" preserveAspectRatio="xMidYMid meet" version="1.0"><defs><clipPath id="192c472a78"><path d="M 2.117188 0 L 1437.882812 0 L 1437.882812 253 L 2.117188 253 Z M 2.117188 0 " clip-rule="nonzero"/></clipPath><clipPath id="1c2d4e192d"><rect x="0" width="1436" y="0" height="253"/></clipPath></defs><g clip-path="url(#192c472a78)"><g transform="matrix(1, 0, 0, 1, 2, -0.000000000000012827)"><g clip-path="url(#1c2d4e192d)"><path fill="#000000" d="M 1.121094 90.875 C 1.121094 90.371094 1.457031 89.894531 2.128906 89.449219 L 48.867188 89.449219 C 49.3125 89.617188 49.621094 89.925781 49.785156 90.371094 L 49.785156 97.40625 C 49.785156 101.539062 49.730469 103.941406 49.621094 104.609375 C 49.507812 105.28125 49.0625 105.613281 48.28125 105.613281 C 47.832031 105.613281 47.496094 105.476562 47.273438 105.195312 C 47.050781 104.917969 46.828125 104.304688 46.605469 103.355469 C 46.4375 101.175781 45.375 99.136719 43.421875 97.238281 C 41.691406 95.394531 39.679688 94.167969 37.390625 93.554688 C 35.101562 92.941406 32.167969 92.546875 28.597656 92.382812 L 23.738281 92.382812 C 22.84375 93.050781 22.34375 93.832031 22.230469 94.726562 C 22.117188 95.621094 22.007812 99.195312 21.894531 105.449219 L 21.894531 115.667969 L 23.320312 115.667969 C 26.222656 115.386719 28.484375 114.800781 30.105469 113.90625 C 31.722656 113.015625 33.007812 111.671875 33.957031 109.886719 C 34.851562 107.597656 35.296875 105.726562 35.296875 104.273438 C 35.296875 102.992188 35.742188 102.347656 36.636719 102.347656 C 37.140625 102.347656 37.558594 102.570312 37.894531 103.019531 C 38.117188 103.242188 38.226562 107.710938 38.226562 116.421875 C 38.226562 117.984375 38.226562 119.742188 38.226562 121.695312 C 38.226562 123.652344 38.257812 124.90625 38.3125 125.464844 C 38.3125 127.476562 38.226562 128.761719 38.0625 129.320312 C 37.894531 129.878906 37.445312 130.15625 36.71875 130.15625 C 35.769531 130.210938 35.296875 129.652344 35.296875 128.480469 C 35.296875 127.195312 34.90625 125.71875 34.125 124.042969 C 32.503906 120.804688 29.097656 118.988281 23.90625 118.597656 L 21.894531 118.597656 L 21.894531 129.820312 C 21.949219 131.328125 21.980469 133.199219 21.980469 135.433594 C 22.035156 138.839844 22.117188 140.878906 22.230469 141.546875 C 22.34375 142.21875 22.734375 142.859375 23.402344 143.472656 C 23.570312 143.585938 23.683594 143.667969 23.738281 143.726562 L 27.84375 143.726562 C 31.695312 143.726562 34.988281 143.308594 37.726562 142.46875 C 44.539062 140.066406 48.808594 136.464844 50.539062 131.664062 C 50.707031 130.324219 51.265625 129.652344 52.214844 129.652344 C 52.605469 129.652344 52.941406 129.820312 53.222656 130.15625 C 53.5 130.492188 53.667969 130.882812 53.722656 131.328125 C 53.613281 131.441406 53.164062 133.898438 52.382812 138.699219 C 51.601562 143.503906 51.042969 146.070312 50.707031 146.40625 L 50.375 146.742188 L 2.128906 146.742188 C 1.457031 146.40625 1.121094 145.929688 1.121094 145.316406 C 1.121094 144.257812 2.210938 143.726562 4.390625 143.726562 C 6.679688 143.558594 7.964844 143.082031 8.242188 142.300781 C 8.523438 141.855469 8.660156 133.785156 8.660156 118.09375 C 8.660156 102.40625 8.523438 94.28125 8.242188 93.722656 C 7.90625 92.996094 6.621094 92.546875 4.390625 92.382812 C 2.210938 92.382812 1.121094 91.878906 1.121094 90.875 Z M 11.59375 118.09375 C 11.59375 129.820312 11.566406 136.859375 11.507812 139.203125 C 11.453125 141.546875 11.285156 143 11.007812 143.558594 C 10.949219 143.613281 10.921875 143.667969 10.921875 143.726562 L 19.800781 143.726562 C 19.6875 143.390625 19.578125 143.027344 19.464844 142.636719 L 19.046875 141.546875 L 19.046875 94.476562 L 19.464844 93.46875 L 19.800781 92.382812 L 10.921875 92.382812 C 11.089844 92.773438 11.203125 93.050781 11.257812 93.21875 C 11.3125 93.386719 11.371094 94.363281 11.425781 96.148438 C 11.480469 97.9375 11.535156 100.339844 11.59375 103.355469 C 11.648438 106.367188 11.648438 111.28125 11.59375 118.09375 Z M 46.773438 96.148438 L 46.773438 92.382812 L 42.332031 92.382812 C 42.332031 92.492188 42.640625 92.742188 43.253906 93.136719 C 43.925781 93.414062 44.675781 93.972656 45.515625 94.808594 Z M 35.296875 120.105469 L 35.296875 113.40625 L 34.125 114.578125 C 33.453125 115.304688 32.726562 115.863281 31.945312 116.253906 L 30.773438 116.921875 C 31.164062 117.203125 31.609375 117.453125 32.113281 117.675781 C 33.117188 118.402344 33.871094 118.90625 34.375 119.183594 Z M 48.867188 141.546875 L 49.199219 139.285156 C 49.144531 139.285156 49.035156 139.425781 48.867188 139.707031 C 47.46875 140.933594 45.90625 141.964844 44.175781 142.804688 L 42.917969 143.558594 L 45.515625 143.726562 L 48.445312 143.726562 C 48.445312 143.667969 48.476562 143.558594 48.53125 143.390625 C 48.585938 143.222656 48.640625 142.945312 48.699219 142.554688 C 48.753906 142.164062 48.808594 141.828125 48.867188 141.546875 Z M 48.867188 141.546875 " fill-opacity="1" fill-rule="nonzero"/><path fill="#000000" d="M 61.058594 142.402344 C 60.230469 142.402344 59.816406 142.207031 59.816406 141.8125 C 59.816406 141.535156 60.347656 140.667969 61.414062 139.207031 C 62.480469 137.746094 63.546875 136.558594 64.613281 135.652344 C 65.992188 134.585938 67.277344 133.976562 68.460938 133.816406 C 68.699219 133.738281 72.015625 133.699219 78.410156 133.699219 C 84.726562 133.699219 87.984375 133.738281 88.179688 133.816406 C 88.96875 134.015625 89.363281 134.546875 89.363281 135.414062 C 89.363281 135.96875 89.1875 136.480469 88.832031 136.957031 C 88.476562 137.429688 88.023438 137.746094 87.46875 137.902344 C 87.234375 137.980469 85.339844 138.019531 81.785156 138.019531 C 78.230469 138.019531 76.457031 138.0625 76.457031 138.140625 C 76.417969 138.179688 76.101562 139.796875 75.507812 142.996094 C 74.914062 146.191406 74.285156 149.449219 73.613281 152.765625 C 72.941406 156.082031 72.585938 157.839844 72.546875 158.035156 C 72.351562 158.628906 71.996094 159.101562 71.480469 159.457031 C 70.96875 159.8125 70.394531 159.992188 69.765625 159.992188 C 68.460938 159.992188 67.808594 159.339844 67.808594 158.035156 L 67.808594 157.445312 L 70.769531 147.851562 C 71.203125 146.429688 71.679688 144.851562 72.191406 143.113281 C 72.703125 141.375 73.121094 140.113281 73.433594 139.324219 L 73.789062 138.082031 C 73.789062 138.039062 72.882812 138.019531 71.066406 138.019531 C 70.988281 138.019531 70.769531 138.019531 70.414062 138.019531 C 70.058594 138.019531 69.785156 138 69.585938 137.960938 C 66.507812 137.960938 64.097656 139.226562 62.363281 141.753906 C 62.164062 142.066406 62.007812 142.246094 61.886719 142.285156 C 61.769531 142.324219 61.492188 142.363281 61.058594 142.402344 Z M 61.058594 142.402344 " fill-opacity="1" fill-rule="nonzero"/><path fill="#000000" d="M 92.621094 149.390625 C 92.621094 146.429688 93.53125 143.707031 95.347656 141.21875 C 97.160156 138.730469 99.550781 137.488281 102.511719 137.488281 C 104.011719 137.488281 105.472656 137.84375 106.894531 138.554688 C 108.316406 139.265625 109.617188 140.152344 110.800781 141.21875 C 111.988281 142.285156 113.152344 143.3125 114.296875 144.296875 C 115.441406 145.285156 116.683594 146.152344 118.027344 146.902344 C 119.367188 147.652344 120.75 148.027344 122.171875 148.027344 C 124.621094 148.027344 126.613281 147.101562 128.152344 145.246094 C 129.691406 143.390625 130.460938 141.375 130.460938 139.207031 C 130.460938 138.730469 130.542969 138.335938 130.699219 138.019531 C 130.855469 137.707031 131.054688 137.527344 131.292969 137.488281 C 131.84375 137.488281 132.121094 138.140625 132.121094 139.441406 C 132.121094 142.363281 131.230469 145.066406 129.457031 147.554688 C 127.679688 150.042969 125.410156 151.285156 122.644531 151.285156 L 122.171875 151.285156 C 120.710938 151.285156 119.269531 150.929688 117.847656 150.21875 C 116.425781 149.507812 115.105469 148.640625 113.882812 147.613281 C 112.65625 146.589844 111.492188 145.5625 110.386719 144.535156 C 109.28125 143.507812 108.039062 142.621094 106.65625 141.871094 C 105.273438 141.121094 103.914062 140.765625 102.570312 140.804688 C 100.832031 140.804688 99.292969 141.296875 97.953125 142.285156 C 96.53125 143.429688 95.5625 144.773438 95.050781 146.3125 C 94.535156 147.851562 94.222656 149.074219 94.101562 149.984375 C 93.984375 150.890625 93.765625 151.34375 93.449219 151.34375 C 92.898438 151.34375 92.621094 150.695312 92.621094 149.390625 Z M 92.621094 149.390625 " fill-opacity="1" fill-rule="nonzero"/><path fill="#000000" d="M 143.253906 159.871094 C 141.910156 159.871094 141.238281 159.222656 141.238281 157.917969 L 141.238281 157.265625 L 142.011719 155.609375 C 144.972656 149.371094 147.121094 143.984375 148.464844 139.441406 L 148.9375 138.019531 L 147.042969 138.019531 C 145.542969 138.019531 144.476562 138.082031 143.84375 138.199219 C 143.214844 138.316406 142.445312 138.691406 141.535156 139.324219 C 141.101562 139.601562 140.667969 139.957031 140.234375 140.390625 C 139.800781 140.824219 139.425781 141.238281 139.109375 141.632812 C 138.792969 142.027344 138.613281 142.265625 138.574219 142.34375 C 138.496094 142.382812 138.199219 142.402344 137.6875 142.402344 C 136.9375 142.402344 136.5625 142.207031 136.5625 141.8125 C 136.5625 141.574219 136.9375 140.882812 137.6875 139.738281 C 138.4375 138.59375 139.523438 137.371094 140.945312 136.066406 C 142.363281 134.765625 143.765625 134.015625 145.148438 133.816406 C 145.425781 133.738281 149.867188 133.699219 158.472656 133.699219 C 164.789062 133.699219 168.027344 133.71875 168.183594 133.757812 C 168.972656 134.035156 169.367188 134.585938 169.367188 135.414062 C 169.367188 136.640625 168.738281 137.46875 167.472656 137.902344 C 167.238281 137.980469 165.875 138.019531 163.386719 138.019531 L 159.597656 138.019531 L 159.421875 139.027344 C 158.945312 141.871094 158.710938 144.21875 158.710938 146.074219 C 158.710938 148.128906 158.886719 149.964844 159.242188 151.582031 C 159.597656 153.199219 159.972656 154.464844 160.367188 155.371094 C 160.761719 156.28125 160.960938 156.832031 160.960938 157.03125 C 160.960938 157.703125 160.683594 158.332031 160.128906 158.925781 C 159.578125 159.515625 158.867188 159.8125 158 159.8125 C 157.566406 159.8125 157.210938 159.753906 156.933594 159.636719 C 156.65625 159.515625 156.339844 159.042969 155.984375 158.214844 C 155.628906 157.386719 155.3125 156.199219 155.039062 154.660156 C 155 154.304688 154.980469 153.4375 154.980469 152.054688 C 154.980469 150.121094 155.15625 148.046875 155.511719 145.839844 C 155.867188 143.628906 156.222656 141.8125 156.578125 140.390625 C 156.933594 138.96875 157.128906 138.179688 157.167969 138.019531 L 151.367188 138.019531 L 151.308594 138.257812 C 151.308594 138.375 150.933594 139.9375 150.183594 142.9375 C 149.433594 145.9375 148.582031 149.113281 147.636719 152.46875 C 146.6875 155.824219 146.074219 157.742188 145.800781 158.214844 C 145.367188 159.320312 144.515625 159.871094 143.253906 159.871094 Z M 143.253906 159.871094 " fill-opacity="1" fill-rule="nonzero"/><path fill="#000000" d="M 172.609375 159.730469 C 172.609375 156.882812 173.15625 153.882812 174.242188 150.730469 C 175.332031 147.574219 176.8125 144.855469 178.679688 142.566406 C 180.550781 140.277344 182.492188 138.964844 184.5 138.628906 C 184.527344 138.628906 184.640625 138.628906 184.835938 138.628906 C 185.03125 138.628906 185.199219 138.617188 185.339844 138.585938 C 186.84375 138.699219 188.019531 139.382812 188.855469 140.640625 C 189.945312 142.3125 190.488281 144.5625 190.488281 147.378906 C 190.488281 150.589844 189.859375 153.855469 188.605469 157.175781 C 187.347656 160.5 185.742188 163.21875 183.789062 165.339844 C 181.835938 167.460938 179.964844 168.523438 178.179688 168.523438 L 177.886719 168.523438 C 176.882812 168.523438 176.015625 168.242188 175.289062 167.683594 C 174.5625 167.128906 174.019531 166.386719 173.65625 165.464844 C 173.292969 164.546875 173.027344 163.609375 172.863281 162.660156 C 172.695312 161.710938 172.609375 160.734375 172.609375 159.730469 Z M 187.179688 144.40625 C 187.179688 141.558594 186.441406 140.136719 184.960938 140.136719 C 183.957031 140.136719 182.980469 140.765625 182.03125 142.019531 C 181.082031 143.277344 180.300781 144.699219 179.6875 146.292969 C 179.070312 147.882812 178.597656 149.277344 178.261719 150.476562 C 177.925781 151.679688 177.746094 152.375 177.71875 152.570312 C 179.085938 152.597656 180.441406 152.613281 181.78125 152.613281 L 185.839844 152.570312 C 185.867188 152.542969 185.980469 152.082031 186.175781 151.191406 C 186.371094 150.296875 186.59375 149.179688 186.84375 147.839844 C 187.097656 146.5 187.207031 145.355469 187.179688 144.40625 Z M 175.875 162.578125 C 175.875 165.535156 176.617188 167.015625 178.09375 167.015625 C 178.515625 167.015625 178.960938 166.875 179.433594 166.597656 C 179.910156 166.316406 180.480469 165.789062 181.152344 165.003906 C 181.820312 164.222656 182.492188 163.011719 183.160156 161.363281 C 183.832031 159.714844 184.5 157.679688 185.171875 155.25 L 185.378906 154.539062 L 177.214844 154.539062 C 177.214844 154.621094 177.089844 155.152344 176.839844 156.128906 C 176.585938 157.105469 176.363281 158.195312 176.167969 159.394531 C 175.972656 160.597656 175.875 161.65625 175.875 162.578125 Z M 175.875 162.578125 " fill-opacity="1" fill-rule="nonzero"/><path fill="#000000" d="M 198.363281 157.148438 C 198.363281 157.148438 198.363281 156.65625 198.363281 155.667969 C 198.363281 154.679688 198.675781 153.832031 199.308594 153.121094 C 199.941406 152.410156 200.789062 152.054688 201.855469 152.054688 C 202.960938 152.054688 203.949219 152.550781 204.816406 153.535156 C 205.683594 154.523438 206.140625 156.261719 206.179688 158.746094 C 206.179688 160.128906 206 161.472656 205.644531 162.773438 C 205.289062 164.078125 204.875 165.203125 204.402344 166.148438 C 203.929688 167.097656 203.414062 167.90625 202.863281 168.578125 C 202.308594 169.25 201.835938 169.78125 201.441406 170.175781 C 201.046875 170.570312 200.789062 170.75 200.671875 170.710938 C 200.511719 170.710938 200.257812 170.53125 199.902344 170.175781 C 199.546875 169.820312 199.367188 169.566406 199.367188 169.40625 C 199.367188 169.25 199.585938 168.933594 200.019531 168.460938 C 200.453125 167.984375 200.949219 167.394531 201.5 166.683594 C 202.054688 165.972656 202.566406 164.984375 203.039062 163.722656 C 203.515625 162.457031 203.828125 161.015625 203.988281 159.398438 L 203.988281 158.6875 L 203.929688 158.746094 C 203.847656 158.785156 203.75 158.828125 203.632812 158.867188 C 203.515625 158.90625 203.394531 158.964844 203.277344 159.042969 C 203.160156 159.121094 202.980469 159.160156 202.742188 159.160156 C 202.507812 159.160156 202.269531 159.183594 202.035156 159.222656 C 200.96875 159.222656 200.097656 158.886719 199.425781 158.214844 Z M 198.363281 157.148438 " fill-opacity="1" fill-rule="nonzero"/><path fill="#000000" d="M 217.191406 168.816406 C 217.273438 168.816406 217.390625 168.855469 217.546875 168.933594 C 217.707031 169.011719 217.921875 169.070312 218.199219 169.109375 C 218.476562 169.148438 218.714844 169.167969 218.910156 169.167969 C 219.421875 169.167969 219.898438 168.914062 220.332031 168.398438 C 220.765625 167.886719 221.082031 167.3125 221.277344 166.683594 C 221.675781 165.617188 222.34375 162.597656 223.292969 157.621094 C 224.238281 152.648438 225.148438 147.910156 226.015625 143.410156 C 226.886719 138.910156 227.320312 136.640625 227.320312 136.601562 L 227.320312 136.421875 L 224.535156 136.421875 C 222.679688 136.421875 221.695312 136.382812 221.574219 136.304688 C 221.417969 136.183594 221.339844 135.988281 221.339844 135.710938 L 221.753906 134.054688 C 221.832031 133.855469 221.988281 133.757812 222.226562 133.757812 C 222.464844 133.757812 223.390625 133.738281 225.011719 133.699219 C 226.90625 133.699219 227.851562 133.679688 227.851562 133.640625 C 227.851562 133.558594 228.03125 132.574219 228.386719 130.679688 C 228.742188 128.785156 228.976562 127.636719 229.097656 127.242188 C 230.554688 120.730469 233.4375 117.472656 237.742188 117.472656 C 239.203125 117.550781 240.40625 117.984375 241.355469 118.773438 C 242.300781 119.566406 242.773438 120.609375 242.773438 121.914062 C 242.773438 123.335938 242.359375 124.363281 241.53125 124.992188 C 240.703125 125.625 239.875 125.960938 239.042969 126 C 237.308594 126 236.4375 125.171875 236.4375 123.511719 C 236.4375 122.761719 236.65625 122.109375 237.089844 121.558594 C 237.523438 121.007812 238 120.589844 238.511719 120.316406 L 239.042969 120.019531 C 238.414062 119.78125 237.820312 119.664062 237.269531 119.664062 C 236.792969 119.664062 236.339844 119.859375 235.90625 120.253906 C 235.472656 120.652344 235.175781 121.203125 235.019531 121.914062 C 234.742188 123.058594 234.425781 124.597656 234.070312 126.53125 C 233.714844 128.46875 233.398438 130.105469 233.121094 131.449219 C 232.847656 132.789062 232.707031 133.5 232.707031 133.578125 C 232.707031 133.660156 233.792969 133.699219 235.964844 133.699219 C 237.742188 133.699219 238.769531 133.71875 239.042969 133.757812 C 239.320312 133.796875 239.539062 133.914062 239.695312 134.113281 C 239.734375 134.269531 239.695312 134.605469 239.578125 135.121094 C 239.460938 135.632812 239.359375 135.949219 239.28125 136.066406 C 239.203125 136.265625 239.023438 136.363281 238.75 136.363281 C 238.472656 136.363281 237.40625 136.382812 235.550781 136.421875 L 232.234375 136.421875 L 230.871094 143.648438 C 228.976562 153.4375 227.65625 159.558594 226.90625 162.003906 C 225.839844 165.359375 224.457031 167.847656 222.757812 169.464844 C 221.300781 170.730469 219.859375 171.359375 218.4375 171.359375 C 217.171875 171.359375 216.027344 170.984375 215.003906 170.234375 C 213.976562 169.484375 213.460938 168.417969 213.460938 167.039062 C 213.460938 165.578125 213.875 164.511719 214.707031 163.839844 C 215.535156 163.167969 216.363281 162.832031 217.191406 162.832031 C 218.929688 162.832031 219.796875 163.664062 219.796875 165.320312 C 219.796875 166.070312 219.582031 166.722656 219.148438 167.273438 C 218.714844 167.828125 218.238281 168.242188 217.726562 168.519531 Z M 217.191406 168.816406 " fill-opacity="1" fill-rule="nonzero"/><path fill="#000000" d="M 283.484375 251.316406 L 283.484375 0.121094 L 309.28125 0.121094 L 309.28125 6.234375 L 289.597656 6.234375 L 289.597656 245.199219 L 309.28125 245.199219 L 309.28125 251.316406 Z M 283.484375 251.316406 " fill-opacity="1" fill-rule="nonzero"/><path fill="#000000" d="M 318.480469 67.253906 C 318.648438 67.140625 335.539062 67.085938 369.152344 67.085938 L 419.578125 67.085938 L 424.433594 78.394531 C 427.730469 86.097656 429.488281 90.175781 429.710938 90.621094 L 426.363281 90.621094 L 425.777344 89.449219 C 424.601562 87.160156 423.039062 84.980469 421.085938 82.917969 C 418.292969 80.234375 415.195312 78.085938 411.789062 76.46875 C 408.382812 74.847656 404.445312 73.648438 399.976562 72.863281 C 395.511719 72.082031 391.292969 71.609375 387.328125 71.441406 C 383.363281 71.273438 378.253906 71.160156 372 71.105469 L 334.476562 71.105469 L 335.148438 72.027344 C 361 107.375 373.984375 125.214844 374.097656 125.550781 C 374.152344 125.660156 374.152344 125.828125 374.097656 126.050781 C 373.929688 126.21875 366.558594 134.652344 351.984375 151.347656 L 329.871094 176.476562 C 329.871094 176.53125 335.761719 176.558594 347.542969 176.558594 C 350.449219 176.558594 354.382812 176.558594 359.355469 176.558594 C 364.324219 176.558594 367.898438 176.585938 370.074219 176.644531 C 377.667969 176.644531 383.8125 176.503906 388.503906 176.222656 C 393.191406 175.945312 397.855469 175.359375 402.492188 174.464844 C 407.125 173.570312 411.0625 172.203125 414.300781 170.359375 C 417.539062 168.519531 420.414062 166.089844 422.925781 163.074219 C 424.101562 161.621094 425.246094 159.613281 426.363281 157.042969 L 429.710938 157.042969 C 429.710938 157.097656 429.515625 157.6875 429.125 158.800781 C 428.734375 159.917969 428.035156 161.734375 427.03125 164.246094 C 426.027344 166.757812 425.160156 169.105469 424.433594 171.28125 L 419.578125 184.265625 L 369.238281 184.347656 C 335.621094 184.347656 318.730469 184.292969 318.5625 184.179688 C 318.226562 184.070312 318.0625 183.820312 318.0625 183.429688 C 318.0625 183.316406 318.117188 183.148438 318.226562 182.925781 L 362.871094 131.832031 C 362.871094 131.777344 361.949219 130.519531 360.109375 128.0625 C 358.265625 125.605469 355.332031 121.585938 351.3125 116 C 347.292969 110.417969 343.664062 105.449219 340.425781 101.09375 L 318.144531 70.519531 L 318.0625 69.261719 C 318.0625 68.089844 318.199219 67.421875 318.480469 67.253906 Z M 318.480469 67.253906 " fill-opacity="1" fill-rule="nonzero"/><path fill="#000000" d="M 327.136719 198.992188 C 327.175781 198.992188 328.597656 198.894531 331.402344 198.695312 C 334.203125 198.5 335.644531 198.378906 335.722656 198.339844 C 336.195312 198.339844 336.433594 198.519531 336.433594 198.875 C 336.433594 199.308594 335.722656 202.289062 334.300781 207.816406 C 332.800781 213.660156 332.050781 216.640625 332.050781 216.757812 C 332.050781 216.835938 332.191406 216.738281 332.464844 216.460938 C 334.875 214.328125 337.441406 213.261719 340.164062 213.261719 C 342.296875 213.261719 344.015625 213.796875 345.316406 214.863281 C 346.621094 215.929688 347.289062 217.488281 347.328125 219.539062 C 347.328125 221.554688 346.578125 224.671875 345.078125 228.898438 C 343.578125 233.121094 342.828125 235.648438 342.828125 236.476562 C 342.867188 237.03125 342.96875 237.40625 343.125 237.601562 C 343.285156 237.800781 343.578125 237.898438 344.015625 237.898438 C 345.121094 237.898438 346.144531 237.304688 347.09375 236.121094 C 348.039062 234.9375 348.808594 233.320312 349.402344 231.265625 C 349.519531 230.832031 349.640625 230.574219 349.757812 230.496094 C 349.875 230.417969 350.191406 230.378906 350.707031 230.378906 C 351.496094 230.378906 351.890625 230.535156 351.890625 230.851562 C 351.890625 230.890625 351.8125 231.1875 351.652344 231.738281 C 351.019531 234.070312 350.015625 235.984375 348.632812 237.484375 C 347.289062 239.179688 345.691406 240.03125 343.835938 240.03125 L 343.539062 240.03125 C 341.683594 240.03125 340.34375 239.496094 339.511719 238.429688 C 338.683594 237.363281 338.269531 236.238281 338.269531 235.054688 C 338.269531 234.425781 338.980469 232.09375 340.402344 228.066406 C 341.824219 224.042969 342.554688 221.019531 342.59375 219.007812 C 342.59375 216.679688 341.722656 215.515625 339.988281 215.515625 L 339.691406 215.515625 C 336.414062 215.515625 333.570312 217.449219 331.164062 221.316406 L 330.75 222.085938 L 328.734375 230.082031 C 327.472656 235.214844 326.742188 238.015625 326.542969 238.492188 C 326.03125 239.554688 325.164062 240.089844 323.9375 240.089844 C 323.386719 240.089844 322.914062 239.910156 322.519531 239.554688 C 322.121094 239.199219 321.90625 238.84375 321.867188 238.492188 C 321.867188 237.9375 323.308594 231.9375 326.1875 220.488281 L 330.570312 202.960938 C 330.570312 202.445312 330.433594 202.128906 330.15625 202.011719 C 329.878906 201.894531 329.109375 201.792969 327.847656 201.714844 L 326.605469 201.714844 C 326.367188 201.480469 326.25 201.320312 326.25 201.242188 C 326.25 201.164062 326.289062 200.789062 326.367188 200.117188 C 326.5625 199.367188 326.820312 198.992188 327.136719 198.992188 Z M 327.136719 198.992188 " fill-opacity="1" fill-rule="nonzero"/><path fill="#000000" d="M 356.449219 218.890625 C 356.449219 218.375 356.726562 217.980469 357.277344 217.703125 L 395 217.703125 C 395.59375 218.019531 395.890625 218.414062 395.890625 218.890625 C 395.890625 219.324219 395.613281 219.699219 395.058594 220.015625 L 376.226562 220.074219 L 357.398438 220.074219 C 356.765625 219.875 356.449219 219.480469 356.449219 218.890625 Z M 356.449219 230.378906 C 356.449219 229.785156 356.765625 229.390625 357.398438 229.191406 L 395.058594 229.191406 C 395.613281 229.585938 395.890625 229.984375 395.890625 230.378906 C 395.890625 230.890625 395.59375 231.285156 395 231.5625 L 357.277344 231.5625 C 356.726562 231.285156 356.449219 230.890625 356.449219 230.378906 Z M 356.449219 230.378906 " fill-opacity="1" fill-rule="nonzero"/><path fill="#000000" d="M 411.820312 205.210938 L 411.046875 205.507812 C 410.496094 205.703125 409.707031 205.902344 408.679688 206.097656 C 407.652344 206.296875 406.507812 206.433594 405.246094 206.511719 L 404.121094 206.511719 L 404.121094 203.789062 L 405.246094 203.789062 C 407.101562 203.710938 408.816406 203.414062 410.398438 202.898438 C 411.976562 202.386719 413.082031 201.914062 413.714844 201.480469 C 414.34375 201.042969 414.898438 200.609375 415.371094 200.175781 C 415.449219 200.058594 415.6875 200 416.082031 200 C 416.4375 200 416.773438 200.117188 417.089844 200.355469 L 417.089844 218.058594 L 417.148438 235.824219 C 417.425781 236.101562 417.660156 236.28125 417.859375 236.359375 C 418.054688 236.4375 418.53125 236.515625 419.28125 236.59375 C 420.03125 236.675781 421.253906 236.714844 422.953125 236.714844 L 424.492188 236.714844 L 424.492188 239.4375 L 423.839844 239.4375 C 423.011719 239.320312 419.871094 239.261719 414.425781 239.261719 C 409.054688 239.261719 405.957031 239.320312 405.125 239.4375 L 404.417969 239.4375 L 404.417969 236.714844 L 405.957031 236.714844 C 406.824219 236.714844 407.574219 236.714844 408.207031 236.714844 C 408.835938 236.714844 409.332031 236.695312 409.6875 236.65625 C 410.042969 236.613281 410.359375 236.554688 410.632812 236.476562 C 410.910156 236.398438 411.070312 236.359375 411.109375 236.359375 C 411.148438 236.359375 411.265625 236.261719 411.464844 236.0625 C 411.660156 235.863281 411.777344 235.785156 411.820312 235.824219 Z M 411.820312 205.210938 " fill-opacity="1" fill-rule="nonzero"/><path fill="#000000" d="M 323.285156 12.613281 C 321.945312 12.613281 321.234375 12.53125 321.15625 12.375 C 321.117188 12.296875 321.097656 12.136719 321.097656 11.902344 C 321.097656 10.953125 321.3125 10.300781 321.746094 9.945312 C 321.824219 9.90625 322.160156 9.886719 322.753906 9.886719 C 324.371094 9.96875 327.058594 10.007812 330.808594 10.007812 C 332.148438 10.007812 333.394531 10.007812 334.539062 10.007812 C 335.683594 10.007812 336.570312 9.988281 337.203125 9.945312 C 337.835938 9.90625 338.230469 9.90625 338.386719 9.945312 C 339.019531 9.945312 339.335938 10.144531 339.335938 10.539062 C 339.335938 10.617188 339.296875 10.894531 339.214844 11.367188 C 339.019531 12.039062 338.820312 12.433594 338.625 12.550781 L 338.507812 12.550781 C 338.425781 12.550781 338.328125 12.550781 338.210938 12.550781 C 338.089844 12.550781 337.953125 12.550781 337.796875 12.550781 C 337.636719 12.550781 337.460938 12.574219 337.261719 12.613281 C 337.066406 12.652344 336.886719 12.652344 336.730469 12.613281 C 335.191406 12.652344 334.203125 12.710938 333.769531 12.789062 C 333.335938 12.867188 332.980469 13.085938 332.703125 13.441406 C 332.585938 13.597656 331.953125 16.027344 330.808594 20.726562 C 330.53125 21.75 330.234375 22.894531 329.917969 24.160156 C 329.601562 25.421875 329.367188 26.351562 329.207031 26.941406 L 328.972656 27.832031 C 328.972656 27.910156 331.835938 27.949219 337.558594 27.949219 L 346.144531 27.949219 L 346.203125 27.773438 C 346.203125 27.652344 346.816406 25.226562 348.039062 20.488281 C 349.144531 15.949219 349.699219 13.519531 349.699219 13.203125 C 349.699219 12.886719 348.574219 12.691406 346.324219 12.613281 C 345.414062 12.613281 344.824219 12.574219 344.546875 12.492188 C 344.269531 12.414062 344.132812 12.238281 344.132812 11.960938 C 344.132812 11.882812 344.171875 11.644531 344.25 11.25 C 344.40625 10.578125 344.527344 10.203125 344.605469 10.125 C 344.683594 10.046875 345 9.988281 345.554688 9.945312 C 345.75 9.945312 346.578125 9.96875 348.039062 10.007812 C 349.5 10.046875 351.355469 10.066406 353.605469 10.066406 C 356.054688 10.066406 357.929688 10.046875 359.230469 10.007812 C 360.535156 9.96875 361.246094 9.945312 361.363281 9.945312 C 362.035156 9.945312 362.371094 10.144531 362.371094 10.539062 C 362.371094 11.605469 362.132812 12.277344 361.660156 12.550781 L 361.542969 12.550781 C 361.460938 12.550781 361.363281 12.550781 361.246094 12.550781 C 361.128906 12.550781 360.988281 12.550781 360.832031 12.550781 C 360.671875 12.550781 360.496094 12.574219 360.296875 12.613281 C 360.101562 12.652344 359.921875 12.652344 359.765625 12.613281 C 358.226562 12.652344 357.238281 12.710938 356.804688 12.789062 C 356.371094 12.867188 356.015625 13.085938 355.738281 13.441406 C 355.621094 13.636719 354.199219 19.226562 351.476562 30.199219 C 348.75 41.175781 347.367188 46.742188 347.328125 46.898438 C 347.328125 47.175781 347.410156 47.3125 347.566406 47.3125 C 347.882812 47.433594 348.949219 47.53125 350.765625 47.609375 L 352.601562 47.609375 C 352.835938 47.925781 352.957031 48.101562 352.957031 48.144531 C 352.957031 48.183594 352.894531 48.539062 352.777344 49.207031 C 352.621094 49.722656 352.421875 50.097656 352.183594 50.332031 L 351.296875 50.332031 C 349.835938 50.253906 347.191406 50.214844 343.363281 50.214844 C 342.019531 50.214844 340.777344 50.214844 339.632812 50.214844 C 338.484375 50.214844 337.578125 50.214844 336.90625 50.214844 C 336.234375 50.214844 335.820312 50.234375 335.664062 50.273438 C 334.992188 50.273438 334.65625 50.097656 334.65625 49.742188 C 334.65625 49.542969 334.714844 49.269531 334.835938 48.914062 C 335.03125 48.164062 335.230469 47.746094 335.425781 47.667969 C 335.585938 47.628906 335.878906 47.609375 336.316406 47.609375 L 336.671875 47.609375 C 337.734375 47.609375 338.921875 47.550781 340.222656 47.433594 C 340.460938 47.394531 340.617188 47.371094 340.695312 47.371094 C 340.777344 47.371094 340.894531 47.273438 341.050781 47.078125 C 341.210938 46.878906 341.328125 46.703125 341.40625 46.542969 C 341.488281 46.386719 341.605469 46.03125 341.761719 45.476562 C 341.921875 44.925781 342.058594 44.371094 342.175781 43.820312 C 342.296875 43.265625 342.511719 42.417969 342.828125 41.273438 C 343.105469 40.167969 343.324219 39.28125 343.480469 38.609375 C 344.78125 33.398438 345.433594 30.773438 345.433594 30.734375 C 345.433594 30.691406 342.570312 30.671875 336.847656 30.671875 L 328.261719 30.671875 L 326.308594 38.667969 C 324.964844 43.957031 324.292969 46.703125 324.292969 46.898438 C 324.292969 47.175781 324.453125 47.351562 324.765625 47.433594 C 325.082031 47.511719 326.070312 47.570312 327.726562 47.609375 L 329.5625 47.609375 C 329.800781 47.925781 329.917969 48.101562 329.917969 48.144531 C 329.917969 48.183594 329.859375 48.539062 329.742188 49.207031 C 329.582031 49.722656 329.386719 50.097656 329.148438 50.332031 L 328.261719 50.332031 C 326.800781 50.253906 324.15625 50.214844 320.324219 50.214844 C 318.984375 50.214844 317.738281 50.214844 316.59375 50.214844 C 315.449219 50.214844 314.542969 50.214844 313.871094 50.214844 C 313.199219 50.214844 312.785156 50.234375 312.628906 50.273438 C 311.957031 50.273438 311.621094 50.097656 311.621094 49.742188 C 311.621094 49.664062 311.679688 49.386719 311.796875 48.914062 C 311.996094 48.164062 312.191406 47.746094 312.390625 47.667969 C 312.546875 47.628906 312.84375 47.609375 313.277344 47.609375 L 313.632812 47.609375 C 314.699219 47.609375 315.882812 47.550781 317.1875 47.433594 C 317.738281 47.3125 318.113281 47.078125 318.3125 46.722656 C 318.429688 46.5625 319.851562 41.074219 322.578125 30.257812 C 325.300781 19.441406 326.664062 13.738281 326.664062 13.144531 C 326.664062 12.867188 325.539062 12.691406 323.285156 12.613281 Z M 323.285156 12.613281 " fill-opacity="1" fill-rule="nonzero"/><path fill="#000000" d="M 367.34375 36.300781 C 367.34375 36.300781 367.34375 36.042969 367.34375 35.53125 C 367.34375 35.015625 367.621094 34.621094 368.175781 34.34375 L 402.578125 34.34375 C 403.171875 34.660156 403.46875 35.054688 403.46875 35.53125 C 403.46875 36.003906 403.171875 36.398438 402.578125 36.714844 L 368.175781 36.714844 C 367.621094 36.4375 367.34375 36.042969 367.34375 35.53125 Z M 367.34375 36.300781 " fill-opacity="1" fill-rule="nonzero"/><path fill="#000000" d="M 421.054688 16.105469 L 420.285156 16.402344 C 419.734375 16.597656 418.945312 16.796875 417.917969 16.992188 C 416.890625 17.191406 415.746094 17.328125 414.484375 17.410156 L 413.359375 17.410156 L 413.359375 14.683594 L 414.484375 14.683594 C 416.339844 14.605469 418.054688 14.308594 419.632812 13.796875 C 421.214844 13.28125 422.320312 12.808594 422.949219 12.375 C 423.582031 11.941406 424.136719 11.507812 424.609375 11.074219 C 424.6875 10.953125 424.925781 10.894531 425.320312 10.894531 C 425.675781 10.894531 426.011719 11.011719 426.328125 11.25 L 426.328125 28.957031 L 426.386719 46.722656 C 426.660156 46.996094 426.898438 47.175781 427.097656 47.253906 C 427.292969 47.332031 427.765625 47.414062 428.515625 47.492188 C 429.265625 47.570312 430.492188 47.609375 432.1875 47.609375 L 433.726562 47.609375 L 433.726562 50.332031 L 433.078125 50.332031 C 432.246094 50.214844 429.109375 50.15625 423.660156 50.15625 C 418.292969 50.15625 415.191406 50.214844 414.363281 50.332031 L 413.652344 50.332031 L 413.652344 47.609375 L 415.191406 47.609375 C 416.0625 47.609375 416.8125 47.609375 417.445312 47.609375 C 418.074219 47.609375 418.570312 47.589844 418.925781 47.550781 C 419.277344 47.511719 419.59375 47.453125 419.871094 47.371094 C 420.148438 47.292969 420.304688 47.253906 420.34375 47.253906 C 420.382812 47.253906 420.503906 47.15625 420.699219 46.957031 C 420.898438 46.761719 421.015625 46.683594 421.054688 46.722656 Z M 421.054688 16.105469 " fill-opacity="1" fill-rule="nonzero"/><path fill="#000000" d="M 454.628906 125.800781 C 453.515625 125.800781 452.957031 125.550781 452.957031 125.046875 C 452.957031 124.097656 453.375 122.8125 454.210938 121.195312 C 455.050781 119.574219 456.167969 117.871094 457.5625 116.085938 C 458.957031 114.296875 460.71875 112.820312 462.839844 111.644531 C 464.960938 110.472656 467.109375 109.832031 469.289062 109.71875 C 470.796875 109.71875 471.71875 109.746094 472.050781 109.804688 C 474.734375 110.417969 476.9375 111.925781 478.667969 114.324219 C 480.402344 116.726562 481.878906 120.382812 483.109375 125.296875 C 483.890625 128.648438 484.28125 131.023438 484.28125 132.417969 C 484.28125 132.640625 484.308594 132.753906 484.367188 132.753906 L 485.371094 130.492188 C 486.488281 127.644531 487.742188 124.65625 489.140625 121.53125 C 490.535156 118.402344 491.734375 115.863281 492.742188 113.90625 C 493.746094 111.953125 494.359375 110.863281 494.582031 110.640625 C 494.695312 110.585938 495.140625 110.558594 495.925781 110.558594 L 497.011719 110.558594 C 497.347656 110.890625 497.515625 111.144531 497.515625 111.3125 C 497.515625 111.535156 496.929688 112.761719 495.757812 114.996094 C 494.582031 117.230469 492.9375 120.777344 490.816406 125.632812 C 488.691406 130.492188 486.683594 135.515625 484.785156 140.710938 C 484.449219 141.605469 484.085938 143.417969 483.695312 146.15625 C 483.304688 148.890625 482.71875 151.851562 481.9375 155.035156 C 481.042969 158.664062 480.289062 161.175781 479.675781 162.570312 C 479.058594 163.96875 478.308594 164.695312 477.414062 164.75 C 476.464844 164.75 475.988281 163.96875 475.988281 162.402344 C 475.988281 159.613281 477.496094 153.46875 480.511719 143.976562 L 481.015625 142.386719 L 481.097656 140.878906 C 481.15625 140.320312 481.183594 139.453125 481.183594 138.28125 C 481.183594 129.515625 479.589844 123.457031 476.40625 120.105469 C 474.175781 117.984375 471.523438 116.921875 468.449219 116.921875 C 465.769531 116.921875 463.3125 117.648438 461.082031 119.101562 C 458.847656 120.550781 457.253906 122.480469 456.304688 124.878906 C 456.195312 125.382812 456.082031 125.632812 455.972656 125.632812 C 455.859375 125.746094 455.414062 125.800781 454.628906 125.800781 Z M 454.628906 125.800781 " fill-opacity="1" fill-rule="nonzero"/><path fill="#000000" d="M 512.6875 71.617188 C 512.730469 71.617188 514.148438 71.519531 516.953125 71.324219 C 519.757812 71.125 521.195312 71.007812 521.277344 70.96875 C 521.75 70.96875 521.988281 71.144531 521.988281 71.5 C 521.988281 71.933594 521.277344 74.914062 519.855469 80.441406 C 518.355469 86.285156 517.605469 89.265625 517.605469 89.382812 C 517.605469 89.464844 517.742188 89.363281 518.019531 89.089844 C 520.425781 86.957031 522.992188 85.890625 525.71875 85.890625 C 527.847656 85.890625 529.566406 86.421875 530.871094 87.488281 C 532.171875 88.554688 532.84375 90.113281 532.882812 92.167969 C 532.882812 94.179688 532.132812 97.300781 530.632812 101.523438 C 529.132812 105.75 528.382812 108.273438 528.382812 109.105469 C 528.421875 109.65625 528.519531 110.03125 528.679688 110.230469 C 528.835938 110.425781 529.132812 110.523438 529.566406 110.523438 C 530.671875 110.523438 531.699219 109.933594 532.644531 108.75 C 533.59375 107.5625 534.363281 105.945312 534.957031 103.890625 C 535.074219 103.457031 535.191406 103.203125 535.3125 103.121094 C 535.429688 103.042969 535.746094 103.003906 536.257812 103.003906 C 537.046875 103.003906 537.441406 103.164062 537.441406 103.476562 C 537.441406 103.515625 537.363281 103.8125 537.207031 104.367188 C 536.574219 106.695312 535.566406 108.609375 534.183594 110.109375 C 532.84375 111.808594 531.246094 112.65625 529.390625 112.65625 L 529.09375 112.65625 C 527.238281 112.65625 525.894531 112.125 525.066406 111.058594 C 524.238281 109.992188 523.824219 108.867188 523.824219 107.683594 C 523.824219 107.050781 524.53125 104.722656 525.953125 100.695312 C 527.375 96.667969 528.105469 93.648438 528.144531 91.632812 C 528.144531 89.304688 527.277344 88.140625 525.539062 88.140625 L 525.242188 88.140625 C 521.96875 88.140625 519.125 90.074219 516.714844 93.945312 L 516.300781 94.714844 L 514.289062 102.707031 C 513.023438 107.839844 512.292969 110.644531 512.097656 111.117188 C 511.582031 112.183594 510.714844 112.714844 509.492188 112.714844 C 508.9375 112.714844 508.464844 112.539062 508.070312 112.183594 C 507.675781 111.828125 507.457031 111.472656 507.417969 111.117188 C 507.417969 110.5625 508.859375 104.5625 511.742188 93.113281 L 516.125 75.585938 C 516.125 75.074219 515.984375 74.757812 515.710938 74.640625 C 515.433594 74.519531 514.664062 74.421875 513.398438 74.34375 L 512.15625 74.34375 C 511.917969 74.105469 511.800781 73.949219 511.800781 73.867188 C 511.800781 73.789062 511.839844 73.414062 511.917969 72.742188 C 512.117188 71.992188 512.375 71.617188 512.6875 71.617188 Z M 512.6875 71.617188 " fill-opacity="1" fill-rule="nonzero"/><path fill="#000000" d="M 544.628906 122.617188 C 544.6875 122.449219 544.742188 122.226562 544.796875 121.949219 C 544.855469 121.667969 544.992188 121.054688 545.214844 120.105469 C 545.441406 119.15625 545.71875 118.289062 546.054688 117.507812 C 546.390625 116.726562 546.808594 115.804688 547.3125 114.746094 C 547.8125 113.683594 548.371094 112.847656 548.984375 112.230469 C 549.601562 111.617188 550.324219 111.003906 551.164062 110.390625 C 552 109.773438 552.921875 109.523438 553.925781 109.636719 C 555.546875 109.636719 556.972656 109.96875 558.199219 110.640625 C 559.429688 111.3125 560.292969 111.925781 560.796875 112.484375 C 561.296875 113.042969 561.605469 113.601562 561.71875 114.160156 C 561.828125 114.492188 561.914062 114.660156 561.96875 114.660156 C 562.023438 114.660156 562.246094 114.464844 562.636719 114.074219 C 565.320312 111.171875 568.417969 109.71875 571.9375 109.71875 L 572.1875 109.71875 C 574.867188 109.71875 576.878906 110.863281 578.21875 113.152344 C 578.664062 114.214844 578.886719 115.246094 578.886719 116.253906 C 578.886719 117.929688 578.523438 119.269531 577.800781 120.273438 C 577.074219 121.277344 576.347656 121.921875 575.621094 122.199219 C 574.894531 122.480469 574.199219 122.589844 573.527344 122.535156 C 572.410156 122.535156 571.515625 122.226562 570.847656 121.613281 C 570.175781 121 569.84375 120.1875 569.84375 119.183594 C 569.84375 116.503906 571.40625 114.71875 574.53125 113.824219 C 573.304688 113.097656 572.300781 112.734375 571.515625 112.734375 C 568.390625 112.734375 565.515625 114.800781 562.890625 118.933594 C 562.332031 119.828125 561.914062 120.746094 561.632812 121.695312 C 561.355469 122.644531 560.40625 126.359375 558.785156 132.835938 C 556.886719 140.65625 555.796875 144.816406 555.519531 145.316406 C 554.792969 146.824219 553.59375 147.578125 551.917969 147.578125 C 551.191406 147.578125 550.605469 147.410156 550.160156 147.074219 C 549.710938 146.742188 549.40625 146.40625 549.238281 146.070312 C 549.070312 145.734375 549.015625 145.457031 549.070312 145.234375 C 549.070312 144.507812 550.1875 139.707031 552.417969 130.828125 C 554.652344 121.949219 555.769531 117.007812 555.769531 116 C 555.769531 113.824219 555.042969 112.734375 553.59375 112.734375 C 552.417969 112.734375 551.414062 113.515625 550.578125 115.078125 C 549.738281 116.644531 549.070312 118.347656 548.566406 120.1875 C 548.0625 122.03125 547.757812 123.039062 547.644531 123.203125 C 547.535156 123.316406 547.085938 123.371094 546.304688 123.371094 L 545.132812 123.371094 C 544.796875 123.039062 544.628906 122.785156 544.628906 122.617188 Z M 544.628906 122.617188 " fill-opacity="1" fill-rule="nonzero"/><path fill="#000000" d="M 602.484375 125.71875 C 602.484375 121.863281 602.761719 118.207031 603.320312 114.746094 C 603.878906 111.28125 604.519531 108.296875 605.246094 105.78125 C 605.972656 103.269531 607.007812 100.8125 608.347656 98.410156 C 609.6875 96.011719 610.746094 94.140625 611.527344 92.800781 C 612.3125 91.460938 613.484375 90.007812 615.046875 88.445312 C 616.609375 86.882812 617.53125 85.933594 617.8125 85.597656 C 618.089844 85.261719 618.789062 84.675781 619.90625 83.835938 L 621.328125 83.835938 C 622.109375 83.835938 622.5 84.089844 622.5 84.589844 C 622.5 84.757812 622.027344 85.34375 621.078125 86.351562 C 620.128906 87.355469 618.984375 88.835938 617.644531 90.789062 C 616.304688 92.742188 614.933594 95.144531 613.539062 97.992188 C 612.144531 100.839844 610.96875 104.695312 610.019531 109.550781 C 609.070312 114.410156 608.597656 119.796875 608.597656 125.71875 C 608.597656 131.636719 609.070312 136.996094 610.019531 141.800781 C 610.96875 146.601562 612.117188 150.480469 613.457031 153.441406 C 614.796875 156.402344 616.164062 158.800781 617.558594 160.644531 C 618.957031 162.488281 620.128906 163.96875 621.078125 165.085938 C 622.027344 166.203125 622.5 166.789062 622.5 166.84375 C 622.5 167.347656 622.082031 167.597656 621.246094 167.597656 L 619.90625 167.597656 L 617.558594 165.585938 C 612.3125 160.839844 608.484375 154.921875 606.085938 147.828125 C 603.683594 140.738281 602.484375 133.367188 602.484375 125.71875 Z M 602.484375 125.71875 " fill-opacity="1" fill-rule="nonzero"/><path fill="#000000" d="M 638.164062 122.449219 C 638.164062 120.664062 638.609375 118.847656 639.503906 117.007812 C 640.398438 115.164062 641.960938 113.460938 644.195312 111.898438 C 646.429688 110.332031 649.136719 109.578125 652.320312 109.636719 C 655.78125 109.636719 658.292969 110.390625 659.859375 111.898438 C 661.421875 113.40625 662.230469 115.078125 662.289062 116.921875 C 662.289062 118.710938 661.8125 120.023438 660.863281 120.859375 C 659.914062 121.695312 658.851562 122.144531 657.679688 122.199219 C 656.953125 122.199219 656.285156 121.976562 655.671875 121.53125 C 655.054688 121.082031 654.722656 120.355469 654.664062 119.351562 C 654.664062 118.457031 654.917969 117.675781 655.417969 117.007812 C 655.921875 116.335938 656.394531 115.832031 656.84375 115.5 C 657.289062 115.164062 657.652344 114.996094 657.933594 114.996094 C 657.988281 114.996094 658.015625 114.96875 658.015625 114.914062 C 658.015625 114.746094 657.820312 114.492188 657.429688 114.160156 C 657.039062 113.824219 656.339844 113.515625 655.335938 113.238281 C 654.332031 112.957031 653.242188 112.789062 652.070312 112.734375 C 649.386719 112.734375 647.433594 113.460938 646.207031 114.914062 C 644.976562 116.363281 644.335938 117.84375 644.277344 119.351562 C 644.277344 120.746094 644.808594 121.726562 645.871094 122.285156 C 646.929688 122.839844 648.46875 123.316406 650.476562 123.707031 C 652.488281 124.097656 653.9375 124.515625 654.832031 124.964844 C 658.519531 126.582031 660.359375 129.261719 660.359375 133.003906 C 660.359375 134.566406 660.054688 136.132812 659.441406 137.695312 C 658.824219 139.257812 657.902344 140.820312 656.675781 142.386719 C 655.445312 143.949219 653.6875 145.175781 651.398438 146.070312 C 649.109375 146.964844 646.484375 147.4375 643.523438 147.496094 C 639.226562 147.496094 636.183594 146.683594 634.394531 145.066406 C 632.609375 143.445312 631.6875 141.546875 631.632812 139.371094 C 631.632812 137.191406 632.21875 135.628906 633.390625 134.679688 C 634.5625 133.730469 635.792969 133.253906 637.074219 133.253906 C 637.914062 133.253906 638.695312 133.507812 639.421875 134.007812 C 640.148438 134.511719 640.539062 135.378906 640.59375 136.605469 C 640.59375 138.058594 640.089844 139.285156 639.085938 140.292969 C 638.082031 141.296875 637.214844 141.800781 636.488281 141.800781 C 636.378906 141.855469 636.292969 141.882812 636.238281 141.882812 C 636.183594 141.882812 636.15625 141.9375 636.15625 142.050781 C 636.210938 142.21875 636.433594 142.441406 636.824219 142.71875 C 637.214844 143 638.082031 143.363281 639.421875 143.808594 C 640.761719 144.257812 642.296875 144.453125 644.027344 144.394531 C 646.039062 144.394531 647.769531 144.089844 649.222656 143.472656 C 650.671875 142.859375 651.734375 142.078125 652.402344 141.128906 C 653.074219 140.179688 653.546875 139.3125 653.828125 138.53125 C 654.105469 137.75 654.246094 137.054688 654.246094 136.4375 C 654.246094 134.875 653.660156 133.703125 652.488281 132.921875 C 651.316406 132.140625 649.976562 131.664062 648.46875 131.496094 C 646.960938 131.328125 645.3125 130.910156 643.523438 130.242188 C 641.738281 129.570312 640.425781 128.59375 639.589844 127.308594 C 638.640625 125.914062 638.164062 124.292969 638.164062 122.449219 Z M 638.164062 122.449219 " fill-opacity="1" fill-rule="nonzero"/><path fill="#000000" d="M 677.351562 118.773438 C 677.390625 118.773438 678.8125 118.675781 681.617188 118.480469 C 684.417969 118.28125 685.859375 118.164062 685.9375 118.125 C 686.414062 118.125 686.648438 118.300781 686.648438 118.65625 C 686.648438 119.089844 685.9375 122.070312 684.519531 127.597656 C 683.015625 133.441406 682.265625 136.421875 682.265625 136.539062 C 682.265625 136.621094 682.40625 136.519531 682.683594 136.246094 C 685.089844 134.113281 687.65625 133.046875 690.378906 133.046875 C 692.511719 133.046875 694.230469 133.578125 695.53125 134.644531 C 696.835938 135.710938 697.507812 137.269531 697.546875 139.324219 C 697.546875 141.335938 696.796875 144.457031 695.296875 148.679688 C 693.796875 152.90625 693.046875 155.429688 693.046875 156.261719 C 693.085938 156.8125 693.183594 157.1875 693.339844 157.386719 C 693.5 157.582031 693.796875 157.679688 694.230469 157.679688 C 695.335938 157.679688 696.359375 157.089844 697.308594 155.90625 C 698.257812 154.722656 699.027344 153.101562 699.617188 151.050781 C 699.738281 150.613281 699.855469 150.359375 699.972656 150.28125 C 700.09375 150.199219 700.40625 150.160156 700.921875 150.160156 C 701.710938 150.160156 702.105469 150.320312 702.105469 150.632812 C 702.105469 150.675781 702.027344 150.96875 701.867188 151.523438 C 701.238281 153.851562 700.230469 155.765625 698.847656 157.265625 C 697.507812 158.964844 695.90625 159.8125 694.050781 159.8125 L 693.753906 159.8125 C 691.898438 159.8125 690.558594 159.28125 689.730469 158.214844 C 688.898438 157.148438 688.484375 156.023438 688.484375 154.839844 C 688.484375 154.207031 689.195312 151.878906 690.617188 147.851562 C 692.039062 143.824219 692.769531 140.804688 692.808594 138.792969 C 692.808594 136.460938 691.941406 135.296875 690.203125 135.296875 L 689.90625 135.296875 C 686.628906 135.296875 683.789062 137.230469 681.378906 141.101562 L 680.964844 141.871094 L 678.949219 149.863281 C 677.6875 154.996094 676.957031 157.800781 676.761719 158.273438 C 676.246094 159.339844 675.378906 159.871094 674.15625 159.871094 C 673.601562 159.871094 673.128906 159.695312 672.734375 159.339844 C 672.339844 158.984375 672.121094 158.628906 672.082031 158.273438 C 672.082031 157.722656 673.523438 151.71875 676.40625 140.273438 L 680.785156 122.742188 C 680.785156 122.230469 680.648438 121.914062 680.371094 121.796875 C 680.097656 121.675781 679.324219 121.578125 678.0625 121.5 L 676.820312 121.5 C 676.582031 121.261719 676.464844 121.105469 676.464844 121.027344 C 676.464844 120.945312 676.503906 120.570312 676.582031 119.902344 C 676.78125 119.152344 677.035156 118.773438 677.351562 118.773438 Z M 677.351562 118.773438 " fill-opacity="1" fill-rule="nonzero"/><path fill="#000000" d="M 714.074219 143.726562 C 714.074219 143.726562 714.074219 143.027344 714.074219 141.632812 C 714.074219 140.234375 714.523438 139.035156 715.417969 138.03125 C 716.308594 137.023438 717.511719 136.523438 719.019531 136.523438 C 720.582031 136.523438 721.976562 137.21875 723.207031 138.617188 C 724.433594 140.011719 725.078125 142.46875 725.132812 145.988281 C 725.132812 147.941406 724.882812 149.839844 724.378906 151.683594 C 723.875 153.527344 723.289062 155.117188 722.621094 156.457031 C 721.949219 157.796875 721.222656 158.941406 720.441406 159.890625 C 719.660156 160.839844 718.988281 161.59375 718.429688 162.152344 C 717.871094 162.710938 717.511719 162.960938 717.34375 162.90625 C 717.121094 162.90625 716.757812 162.65625 716.253906 162.152344 C 715.75 161.648438 715.5 161.289062 715.5 161.0625 C 715.5 160.839844 715.808594 160.394531 716.421875 159.722656 C 717.035156 159.054688 717.734375 158.214844 718.515625 157.210938 C 719.296875 156.207031 720.023438 154.808594 720.691406 153.023438 C 721.363281 151.234375 721.808594 149.199219 722.03125 146.910156 L 722.03125 145.902344 L 721.949219 145.988281 C 721.835938 146.042969 721.699219 146.097656 721.53125 146.15625 C 721.363281 146.210938 721.195312 146.292969 721.027344 146.40625 C 720.859375 146.519531 720.609375 146.574219 720.273438 146.574219 C 719.9375 146.574219 719.605469 146.601562 719.269531 146.65625 C 717.761719 146.65625 716.53125 146.183594 715.582031 145.234375 Z M 714.074219 143.726562 " fill-opacity="1" fill-rule="nonzero"/><path fill="#000000" d="M 747.554688 133.507812 C 747.554688 127.867188 749.675781 122.507812 753.921875 117.425781 C 758.164062 112.34375 762.9375 109.773438 768.242188 109.71875 C 771.089844 109.71875 773.605469 111.085938 775.78125 113.824219 C 776.675781 112.148438 777.960938 111.3125 779.632812 111.3125 C 780.359375 111.3125 781.003906 111.535156 781.5625 111.980469 C 782.121094 112.425781 782.398438 112.984375 782.398438 113.65625 C 782.398438 114.382812 781.367188 118.847656 779.300781 127.058594 C 777.234375 135.265625 776.171875 139.902344 776.117188 140.960938 C 776.117188 142.359375 776.3125 143.277344 776.703125 143.726562 C 777.09375 144.171875 777.679688 144.421875 778.460938 144.480469 C 778.964844 144.421875 779.523438 144.171875 780.136719 143.726562 C 781.308594 142.609375 782.453125 139.929688 783.570312 135.683594 C 783.90625 134.566406 784.183594 133.980469 784.410156 133.925781 C 784.519531 133.871094 784.800781 133.84375 785.246094 133.84375 L 785.582031 133.84375 C 786.640625 133.84375 787.171875 134.09375 787.171875 134.597656 C 787.171875 134.929688 787.03125 135.683594 786.753906 136.859375 C 786.476562 138.03125 785.917969 139.539062 785.078125 141.378906 C 784.242188 143.222656 783.347656 144.621094 782.398438 145.570312 C 781.671875 146.292969 780.777344 146.878906 779.71875 147.328125 C 779.269531 147.4375 778.601562 147.496094 777.707031 147.496094 C 775.808594 147.496094 774.21875 147.074219 772.933594 146.238281 C 771.648438 145.402344 770.8125 144.535156 770.421875 143.640625 L 769.917969 142.386719 C 769.863281 142.328125 769.75 142.359375 769.582031 142.46875 C 769.472656 142.582031 769.359375 142.691406 769.25 142.804688 C 765.953125 145.929688 762.601562 147.496094 759.195312 147.496094 C 756.125 147.496094 753.417969 146.378906 751.074219 144.144531 C 748.726562 141.910156 747.554688 138.363281 747.554688 133.507812 Z M 774.191406 119.183594 C 774.191406 118.847656 774.050781 118.234375 773.769531 117.339844 C 773.492188 116.449219 772.851562 115.472656 771.84375 114.410156 C 770.839844 113.347656 769.554688 112.789062 767.992188 112.734375 C 766.039062 112.734375 764.167969 113.601562 762.378906 115.332031 C 760.59375 117.0625 759.195312 119.324219 758.191406 122.117188 C 756.574219 126.527344 755.429688 131.105469 754.757812 135.851562 C 754.757812 136.019531 754.757812 136.328125 754.757812 136.773438 C 754.757812 137.21875 754.730469 137.554688 754.675781 137.777344 C 754.675781 140.292969 755.175781 142.023438 756.183594 142.972656 C 757.1875 143.921875 758.386719 144.421875 759.785156 144.480469 C 761.90625 144.480469 764 143.558594 766.066406 141.714844 C 768.132812 139.871094 769.359375 138.449219 769.75 137.445312 C 769.863281 137.21875 770.617188 134.234375 772.011719 128.480469 C 773.410156 122.730469 774.132812 119.632812 774.191406 119.183594 Z M 774.191406 119.183594 " fill-opacity="1" fill-rule="nonzero"/><path fill="#000000" d="M 799.976562 118.773438 C 800.015625 118.773438 801.4375 118.675781 804.238281 118.480469 C 807.042969 118.28125 808.484375 118.164062 808.5625 118.125 C 809.035156 118.125 809.273438 118.300781 809.273438 118.65625 C 809.273438 119.089844 808.5625 122.070312 807.140625 127.597656 C 805.640625 133.441406 804.890625 136.421875 804.890625 136.539062 C 804.890625 136.621094 805.03125 136.519531 805.304688 136.246094 C 807.714844 134.113281 810.28125 133.046875 813.003906 133.046875 C 815.136719 133.046875 816.851562 133.578125 818.15625 134.644531 C 819.457031 135.710938 820.128906 137.269531 820.167969 139.324219 C 820.167969 141.335938 819.417969 144.457031 817.917969 148.679688 C 816.417969 152.90625 815.667969 155.429688 815.667969 156.261719 C 815.707031 156.8125 815.808594 157.1875 815.964844 157.386719 C 816.121094 157.582031 816.417969 157.679688 816.851562 157.679688 C 817.957031 157.679688 818.984375 157.089844 819.933594 155.90625 C 820.878906 154.722656 821.648438 153.101562 822.242188 151.050781 C 822.359375 150.613281 822.480469 150.359375 822.597656 150.28125 C 822.714844 150.199219 823.03125 150.160156 823.546875 150.160156 C 824.335938 150.160156 824.730469 150.320312 824.730469 150.632812 C 824.730469 150.675781 824.648438 150.96875 824.492188 151.523438 C 823.859375 153.851562 822.855469 155.765625 821.472656 157.265625 C 820.128906 158.964844 818.53125 159.8125 816.675781 159.8125 L 816.378906 159.8125 C 814.523438 159.8125 813.183594 159.28125 812.351562 158.214844 C 811.523438 157.148438 811.109375 156.023438 811.109375 154.839844 C 811.109375 154.207031 811.820312 151.878906 813.242188 147.851562 C 814.664062 143.824219 815.394531 140.804688 815.433594 138.792969 C 815.433594 136.460938 814.5625 135.296875 812.828125 135.296875 L 812.53125 135.296875 C 809.253906 135.296875 806.410156 137.230469 804.003906 141.101562 L 803.589844 141.871094 L 801.574219 149.863281 C 800.3125 154.996094 799.582031 157.800781 799.382812 158.273438 C 798.871094 159.339844 798.003906 159.871094 796.777344 159.871094 C 796.226562 159.871094 795.753906 159.695312 795.355469 159.339844 C 794.960938 158.984375 794.746094 158.628906 794.707031 158.273438 C 794.707031 157.722656 796.148438 151.71875 799.027344 140.273438 L 803.410156 122.742188 C 803.410156 122.230469 803.273438 121.914062 802.996094 121.796875 C 802.71875 121.675781 801.949219 121.578125 800.6875 121.5 L 799.441406 121.5 C 799.207031 121.261719 799.089844 121.105469 799.089844 121.027344 C 799.089844 120.945312 799.128906 120.570312 799.207031 119.902344 C 799.402344 119.152344 799.660156 118.773438 799.976562 118.773438 Z M 799.976562 118.773438 " fill-opacity="1" fill-rule="nonzero"/><path fill="#000000" d="M 835.191406 83.921875 L 835.527344 83.835938 C 835.804688 83.835938 836.085938 83.835938 836.363281 83.835938 L 837.371094 83.835938 L 839.714844 85.847656 C 844.964844 90.59375 848.789062 96.511719 851.191406 103.605469 C 853.589844 110.695312 854.792969 118.066406 854.792969 125.71875 C 854.792969 129.515625 854.511719 133.171875 853.953125 136.691406 C 853.394531 140.207031 852.753906 143.195312 852.027344 145.652344 C 851.300781 148.109375 850.269531 150.566406 848.929688 153.023438 C 847.589844 155.480469 846.527344 157.351562 845.746094 158.636719 C 844.964844 159.917969 843.820312 161.34375 842.3125 162.90625 C 840.804688 164.46875 839.910156 165.390625 839.632812 165.671875 C 839.351562 165.949219 838.710938 166.480469 837.703125 167.261719 C 837.539062 167.429688 837.425781 167.542969 837.371094 167.597656 L 836.363281 167.597656 C 835.917969 167.597656 835.609375 167.597656 835.445312 167.597656 C 835.277344 167.597656 835.136719 167.511719 835.023438 167.347656 C 834.914062 167.179688 834.828125 166.925781 834.773438 166.59375 C 834.828125 166.535156 835.136719 166.171875 835.695312 165.503906 C 844.351562 156.511719 848.675781 143.25 848.675781 125.71875 C 848.675781 108.183594 844.351562 94.921875 835.695312 85.933594 C 835.136719 85.261719 834.828125 84.898438 834.773438 84.84375 C 834.773438 84.394531 834.914062 84.089844 835.191406 83.921875 Z M 835.191406 83.921875 " fill-opacity="1" fill-rule="nonzero"/><path fill="#000000" d="M 886.042969 126.804688 C 886.042969 126.804688 886.042969 126.441406 886.042969 125.71875 C 886.042969 124.992188 886.433594 124.433594 887.214844 124.042969 L 912.257812 124.042969 L 912.257812 111.476562 L 912.34375 98.914062 C 912.902344 98.1875 913.433594 97.824219 913.933594 97.824219 C 914.660156 97.824219 915.21875 98.246094 915.609375 99.082031 L 915.609375 124.042969 L 940.570312 124.042969 C 941.40625 124.488281 941.828125 125.046875 941.828125 125.71875 C 941.828125 126.386719 941.40625 126.945312 940.570312 127.394531 L 915.609375 127.394531 L 915.609375 152.351562 C 915.164062 153.132812 914.660156 153.527344 914.101562 153.527344 L 913.765625 153.527344 C 913.097656 153.527344 912.59375 153.132812 912.257812 152.351562 L 912.257812 127.394531 L 887.214844 127.394531 C 886.433594 127 886.042969 126.441406 886.042969 125.71875 Z M 886.042969 126.804688 " fill-opacity="1" fill-rule="nonzero"/><path fill="#000000" d="M 967.734375 125.800781 C 966.617188 125.800781 966.058594 125.550781 966.058594 125.046875 C 966.058594 124.097656 966.476562 122.8125 967.316406 121.195312 C 968.152344 119.574219 969.269531 117.871094 970.664062 116.085938 C 972.0625 114.296875 973.820312 112.820312 975.941406 111.644531 C 978.0625 110.472656 980.214844 109.832031 982.390625 109.71875 C 983.898438 109.71875 984.820312 109.746094 985.15625 109.804688 C 987.835938 110.417969 990.042969 111.925781 991.773438 114.324219 C 993.503906 116.726562 994.984375 120.382812 996.210938 125.296875 C 996.992188 128.648438 997.382812 131.023438 997.382812 132.417969 C 997.382812 132.640625 997.414062 132.753906 997.46875 132.753906 L 998.472656 130.492188 C 999.589844 127.644531 1000.847656 124.65625 1002.242188 121.53125 C 1003.636719 118.402344 1004.839844 115.863281 1005.84375 113.90625 C 1006.847656 111.953125 1007.464844 110.863281 1007.6875 110.640625 C 1007.796875 110.585938 1008.246094 110.558594 1009.027344 110.558594 L 1010.117188 110.558594 C 1010.449219 110.890625 1010.617188 111.144531 1010.617188 111.3125 C 1010.617188 111.535156 1010.03125 112.761719 1008.859375 114.996094 C 1007.6875 117.230469 1006.039062 120.777344 1003.917969 125.632812 C 1001.796875 130.492188 999.785156 135.515625 997.886719 140.710938 C 997.550781 141.605469 997.1875 143.417969 996.796875 146.15625 C 996.40625 148.890625 995.820312 151.851562 995.039062 155.035156 C 994.144531 158.664062 993.390625 161.175781 992.777344 162.570312 C 992.164062 163.96875 991.410156 164.695312 990.515625 164.75 C 989.566406 164.75 989.09375 163.96875 989.09375 162.402344 C 989.09375 159.613281 990.601562 153.46875 993.613281 143.976562 L 994.117188 142.386719 L 994.203125 140.878906 C 994.257812 140.320312 994.285156 139.453125 994.285156 138.28125 C 994.285156 129.515625 992.695312 123.457031 989.511719 120.105469 C 987.277344 117.984375 984.625 116.921875 981.554688 116.921875 C 978.875 116.921875 976.417969 117.648438 974.183594 119.101562 C 971.949219 120.550781 970.359375 122.480469 969.410156 124.878906 C 969.296875 125.382812 969.183594 125.632812 969.074219 125.632812 C 968.960938 125.746094 968.515625 125.800781 967.734375 125.800781 Z M 967.734375 125.800781 " fill-opacity="1" fill-rule="nonzero"/><path fill="#000000" d="M 1031.179688 74.34375 C 1029.839844 74.34375 1029.128906 74.265625 1029.050781 74.105469 C 1029.007812 74.027344 1028.988281 73.867188 1028.988281 73.632812 C 1028.988281 72.683594 1029.207031 72.035156 1029.640625 71.679688 C 1029.71875 71.636719 1030.054688 71.617188 1030.648438 71.617188 C 1032.265625 71.699219 1034.953125 71.738281 1038.703125 71.738281 C 1040.042969 71.738281 1041.289062 71.738281 1042.433594 71.738281 C 1043.578125 71.738281 1044.464844 71.71875 1045.097656 71.679688 C 1045.730469 71.636719 1046.125 71.636719 1046.28125 71.679688 C 1046.914062 71.679688 1047.230469 71.875 1047.230469 72.269531 C 1047.230469 72.347656 1047.191406 72.625 1047.109375 73.097656 C 1046.914062 73.769531 1046.714844 74.164062 1046.519531 74.285156 L 1046.398438 74.285156 C 1046.320312 74.285156 1046.222656 74.285156 1046.105469 74.285156 C 1045.984375 74.285156 1045.847656 74.285156 1045.6875 74.285156 C 1045.53125 74.285156 1045.355469 74.304688 1045.15625 74.34375 C 1044.960938 74.382812 1044.78125 74.382812 1044.625 74.34375 C 1043.082031 74.382812 1042.097656 74.441406 1041.664062 74.519531 C 1041.226562 74.597656 1040.871094 74.816406 1040.597656 75.171875 C 1040.476562 75.328125 1039.847656 77.757812 1038.703125 82.457031 C 1038.425781 83.480469 1038.128906 84.628906 1037.8125 85.890625 C 1037.496094 87.152344 1037.261719 88.082031 1037.101562 88.671875 L 1036.867188 89.5625 C 1036.867188 89.640625 1039.726562 89.679688 1045.453125 89.679688 L 1054.039062 89.679688 L 1054.097656 89.503906 C 1054.097656 89.382812 1054.710938 86.957031 1055.933594 82.21875 C 1057.039062 77.679688 1057.59375 75.25 1057.59375 74.933594 C 1057.59375 74.617188 1056.46875 74.421875 1054.21875 74.34375 C 1053.308594 74.34375 1052.714844 74.304688 1052.441406 74.222656 C 1052.164062 74.144531 1052.027344 73.96875 1052.027344 73.691406 C 1052.027344 73.613281 1052.066406 73.375 1052.144531 72.980469 C 1052.300781 72.308594 1052.421875 71.933594 1052.5 71.855469 C 1052.578125 71.777344 1052.894531 71.71875 1053.445312 71.679688 C 1053.644531 71.679688 1054.472656 71.699219 1055.933594 71.738281 C 1057.394531 71.777344 1059.25 71.796875 1061.5 71.796875 C 1063.949219 71.796875 1065.824219 71.777344 1067.125 71.738281 C 1068.429688 71.699219 1069.140625 71.679688 1069.257812 71.679688 C 1069.929688 71.679688 1070.265625 71.875 1070.265625 72.269531 C 1070.265625 73.335938 1070.027344 74.007812 1069.554688 74.285156 L 1069.4375 74.285156 C 1069.355469 74.285156 1069.257812 74.285156 1069.140625 74.285156 C 1069.019531 74.285156 1068.882812 74.285156 1068.726562 74.285156 C 1068.566406 74.285156 1068.390625 74.304688 1068.191406 74.34375 C 1067.996094 74.382812 1067.816406 74.382812 1067.660156 74.34375 C 1066.121094 74.382812 1065.132812 74.441406 1064.699219 74.519531 C 1064.265625 74.597656 1063.910156 74.816406 1063.632812 75.171875 C 1063.515625 75.371094 1062.09375 80.957031 1059.367188 91.929688 C 1056.644531 102.90625 1055.261719 108.472656 1055.222656 108.628906 C 1055.222656 108.90625 1055.300781 109.042969 1055.460938 109.042969 C 1055.777344 109.164062 1056.84375 109.261719 1058.65625 109.339844 L 1060.492188 109.339844 C 1060.730469 109.65625 1060.847656 109.835938 1060.847656 109.875 C 1060.847656 109.914062 1060.789062 110.269531 1060.671875 110.941406 C 1060.511719 111.453125 1060.316406 111.828125 1060.078125 112.066406 L 1059.191406 112.066406 C 1057.730469 111.984375 1055.085938 111.945312 1051.257812 111.945312 C 1049.914062 111.945312 1048.671875 111.945312 1047.523438 111.945312 C 1046.378906 111.945312 1045.472656 111.945312 1044.800781 111.945312 C 1044.128906 111.945312 1043.714844 111.964844 1043.558594 112.003906 C 1042.886719 112.003906 1042.550781 111.828125 1042.550781 111.472656 C 1042.550781 111.273438 1042.609375 111 1042.726562 110.644531 C 1042.925781 109.894531 1043.125 109.480469 1043.320312 109.398438 C 1043.480469 109.359375 1043.773438 109.339844 1044.207031 109.339844 L 1044.5625 109.339844 C 1045.628906 109.339844 1046.816406 109.28125 1048.117188 109.164062 C 1048.355469 109.125 1048.511719 109.105469 1048.589844 109.105469 C 1048.671875 109.105469 1048.789062 109.003906 1048.945312 108.808594 C 1049.105469 108.609375 1049.222656 108.433594 1049.300781 108.273438 C 1049.378906 108.117188 1049.5 107.761719 1049.65625 107.207031 C 1049.816406 106.65625 1049.953125 106.101562 1050.070312 105.550781 C 1050.191406 104.996094 1050.40625 104.148438 1050.722656 103.003906 C 1051 101.898438 1051.214844 101.011719 1051.375 100.339844 C 1052.675781 95.128906 1053.328125 92.503906 1053.328125 92.464844 C 1053.328125 92.425781 1050.464844 92.402344 1044.742188 92.402344 L 1036.15625 92.402344 L 1034.199219 100.398438 C 1032.859375 105.6875 1032.1875 108.433594 1032.1875 108.628906 C 1032.1875 108.90625 1032.34375 109.085938 1032.660156 109.164062 C 1032.976562 109.242188 1033.964844 109.300781 1035.621094 109.339844 L 1037.457031 109.339844 C 1037.695312 109.65625 1037.8125 109.835938 1037.8125 109.875 C 1037.8125 109.914062 1037.753906 110.269531 1037.636719 110.941406 C 1037.476562 111.453125 1037.28125 111.828125 1037.042969 112.066406 L 1036.15625 112.066406 C 1034.695312 111.984375 1032.050781 111.945312 1028.21875 111.945312 C 1026.878906 111.945312 1025.632812 111.945312 1024.488281 111.945312 C 1023.34375 111.945312 1022.4375 111.945312 1021.765625 111.945312 C 1021.09375 111.945312 1020.679688 111.964844 1020.523438 112.003906 C 1019.851562 112.003906 1019.515625 111.828125 1019.515625 111.472656 C 1019.515625 111.394531 1019.574219 111.117188 1019.691406 110.644531 C 1019.890625 109.894531 1020.085938 109.480469 1020.285156 109.398438 C 1020.441406 109.359375 1020.738281 109.339844 1021.171875 109.339844 L 1021.527344 109.339844 C 1022.59375 109.339844 1023.777344 109.28125 1025.082031 109.164062 C 1025.632812 109.042969 1026.007812 108.808594 1026.207031 108.453125 C 1026.324219 108.292969 1027.746094 102.808594 1030.46875 91.988281 C 1033.195312 81.171875 1034.554688 75.46875 1034.554688 74.875 C 1034.554688 74.597656 1033.429688 74.421875 1031.179688 74.34375 Z M 1031.179688 74.34375 " fill-opacity="1" fill-rule="nonzero"/><path fill="#000000" d="M 1078.808594 92.382812 C 1078.808594 91.152344 1079.167969 90.175781 1079.894531 89.449219 L 1080.816406 89.449219 C 1083.164062 89.617188 1086.09375 89.699219 1089.613281 89.699219 C 1096.199219 89.699219 1100.082031 89.617188 1101.253906 89.449219 L 1102.09375 89.449219 C 1102.425781 89.785156 1102.59375 90.035156 1102.59375 90.203125 C 1102.59375 90.371094 1102.539062 90.875 1102.425781 91.710938 C 1102.148438 92.546875 1101.898438 93.078125 1101.671875 93.300781 L 1099.914062 93.300781 C 1098.6875 93.414062 1097.847656 93.46875 1097.402344 93.46875 C 1095.78125 93.75 1094.890625 94.167969 1094.722656 94.726562 C 1094.722656 94.839844 1095.53125 101.847656 1097.148438 115.75 C 1098.769531 129.652344 1099.605469 136.660156 1099.664062 136.773438 L 1105.777344 126.972656 C 1109.855469 120.441406 1113.929688 113.851562 1118.007812 107.207031 C 1122.082031 100.5625 1124.175781 97.128906 1124.289062 96.902344 C 1124.511719 96.511719 1124.625 96.09375 1124.625 95.648438 C 1124.625 94.308594 1123.394531 93.527344 1120.9375 93.300781 C 1119.933594 93.300781 1119.429688 92.996094 1119.429688 92.382812 C 1119.429688 92.324219 1119.484375 91.960938 1119.597656 91.292969 C 1119.765625 90.511719 1119.933594 90.007812 1120.101562 89.785156 C 1120.269531 89.5625 1120.632812 89.449219 1121.1875 89.449219 C 1121.300781 89.449219 1121.636719 89.449219 1122.195312 89.449219 C 1122.753906 89.449219 1123.703125 89.476562 1125.042969 89.535156 C 1126.382812 89.589844 1128.167969 89.617188 1130.402344 89.617188 C 1134.253906 89.617188 1136.683594 89.5625 1137.691406 89.449219 L 1138.277344 89.449219 C 1138.667969 89.839844 1138.863281 90.148438 1138.863281 90.371094 C 1138.863281 91.320312 1138.609375 92.214844 1138.109375 93.050781 C 1137.941406 93.21875 1137.464844 93.300781 1136.683594 93.300781 C 1135.957031 93.359375 1135.289062 93.414062 1134.675781 93.46875 C 1134.058594 93.527344 1133.472656 93.664062 1132.914062 93.890625 C 1132.355469 94.113281 1131.910156 94.308594 1131.574219 94.476562 C 1131.242188 94.644531 1130.90625 94.867188 1130.570312 95.144531 C 1130.234375 95.425781 1129.957031 95.621094 1129.734375 95.730469 C 1129.507812 95.84375 1129.285156 96.09375 1129.0625 96.484375 C 1128.839844 96.875 1128.644531 97.070312 1128.476562 97.070312 L 1112.3125 123.039062 C 1102.257812 139.285156 1097.066406 147.605469 1096.730469 147.996094 C 1096.5625 148.109375 1096.367188 148.25 1096.144531 148.417969 L 1094.636719 148.5 L 1094.050781 148.5 C 1093.046875 148.5 1092.542969 148.304688 1092.542969 147.914062 C 1092.375 147.578125 1091.289062 138.644531 1089.277344 121.109375 C 1087.15625 103.355469 1086.066406 94.390625 1086.011719 94.222656 C 1085.730469 93.609375 1084 93.300781 1080.816406 93.300781 L 1079.394531 93.300781 C 1079.003906 93.023438 1078.808594 92.714844 1078.808594 92.382812 Z M 1078.808594 92.382812 " fill-opacity="1" fill-rule="nonzero"/><path fill="#000000" d="M 1154.410156 108.386719 C 1153.066406 108.386719 1152.398438 107.734375 1152.398438 106.429688 L 1152.398438 105.78125 L 1153.167969 104.121094 C 1156.128906 97.882812 1158.277344 92.496094 1159.621094 87.957031 L 1160.09375 86.535156 L 1158.199219 86.535156 C 1156.699219 86.535156 1155.632812 86.59375 1155.003906 86.710938 C 1154.371094 86.832031 1153.601562 87.207031 1152.691406 87.835938 C 1152.257812 88.113281 1151.824219 88.46875 1151.390625 88.902344 C 1150.957031 89.335938 1150.582031 89.75 1150.265625 90.148438 C 1149.949219 90.542969 1149.773438 90.777344 1149.730469 90.855469 C 1149.652344 90.898438 1149.355469 90.917969 1148.84375 90.917969 C 1148.09375 90.917969 1147.71875 90.71875 1147.71875 90.324219 C 1147.71875 90.085938 1148.09375 89.394531 1148.84375 88.25 C 1149.59375 87.105469 1150.679688 85.882812 1152.101562 84.578125 C 1153.523438 83.277344 1154.921875 82.527344 1156.304688 82.328125 C 1156.582031 82.25 1161.023438 82.210938 1169.628906 82.210938 C 1175.945312 82.210938 1179.183594 82.230469 1179.339844 82.269531 C 1180.128906 82.546875 1180.527344 83.097656 1180.527344 83.929688 C 1180.527344 85.152344 1179.894531 85.980469 1178.628906 86.414062 C 1178.394531 86.496094 1177.03125 86.535156 1174.542969 86.535156 L 1170.753906 86.535156 L 1170.578125 87.539062 C 1170.101562 90.382812 1169.867188 92.730469 1169.867188 94.585938 C 1169.867188 96.640625 1170.042969 98.476562 1170.398438 100.09375 C 1170.753906 101.714844 1171.128906 102.976562 1171.523438 103.886719 C 1171.917969 104.792969 1172.117188 105.347656 1172.117188 105.542969 C 1172.117188 106.214844 1171.839844 106.847656 1171.289062 107.4375 C 1170.734375 108.03125 1170.023438 108.328125 1169.15625 108.328125 C 1168.722656 108.328125 1168.367188 108.265625 1168.089844 108.148438 C 1167.8125 108.03125 1167.496094 107.554688 1167.140625 106.726562 C 1166.785156 105.898438 1166.472656 104.714844 1166.195312 103.175781 C 1166.15625 102.820312 1166.136719 101.949219 1166.136719 100.570312 C 1166.136719 98.632812 1166.3125 96.5625 1166.667969 94.351562 C 1167.023438 92.140625 1167.378906 90.324219 1167.734375 88.902344 C 1168.089844 87.480469 1168.285156 86.691406 1168.328125 86.535156 L 1162.523438 86.535156 L 1162.464844 86.769531 C 1162.464844 86.890625 1162.089844 88.449219 1161.339844 91.449219 C 1160.589844 94.449219 1159.738281 97.628906 1158.792969 100.984375 C 1157.84375 104.339844 1157.234375 106.253906 1156.957031 106.726562 C 1156.523438 107.832031 1155.671875 108.386719 1154.410156 108.386719 Z M 1154.410156 108.386719 " fill-opacity="1" fill-rule="nonzero"/><path fill="#000000" d="M 1183.765625 108.242188 C 1183.765625 105.398438 1184.3125 102.394531 1185.398438 99.242188 C 1186.488281 96.089844 1187.96875 93.367188 1189.839844 91.078125 C 1191.707031 88.789062 1193.648438 87.476562 1195.65625 87.140625 C 1195.6875 87.140625 1195.796875 87.140625 1195.992188 87.140625 C 1196.1875 87.140625 1196.355469 87.128906 1196.496094 87.101562 C 1198.003906 87.210938 1199.175781 87.894531 1200.011719 89.152344 C 1201.101562 90.828125 1201.644531 93.074219 1201.644531 95.894531 C 1201.644531 99.101562 1201.015625 102.367188 1199.761719 105.691406 C 1198.503906 109.011719 1196.898438 111.734375 1194.945312 113.855469 C 1192.992188 115.976562 1191.121094 117.035156 1189.335938 117.035156 L 1189.042969 117.035156 C 1188.039062 117.035156 1187.171875 116.757812 1186.445312 116.199219 C 1185.722656 115.640625 1185.175781 114.902344 1184.8125 113.980469 C 1184.453125 113.058594 1184.1875 112.125 1184.019531 111.175781 C 1183.851562 110.226562 1183.765625 109.25 1183.765625 108.242188 Z M 1198.335938 92.921875 C 1198.335938 90.074219 1197.597656 88.648438 1196.117188 88.648438 C 1195.113281 88.648438 1194.136719 89.277344 1193.1875 90.535156 C 1192.238281 91.789062 1191.457031 93.214844 1190.84375 94.804688 C 1190.230469 96.394531 1189.753906 97.789062 1189.417969 98.992188 C 1189.085938 100.191406 1188.902344 100.890625 1188.875 101.085938 C 1190.242188 101.113281 1191.597656 101.125 1192.9375 101.125 L 1196.996094 101.085938 C 1197.023438 101.054688 1197.136719 100.597656 1197.332031 99.703125 C 1197.527344 98.808594 1197.75 97.691406 1198.003906 96.351562 C 1198.253906 95.011719 1198.363281 93.871094 1198.335938 92.921875 Z M 1187.03125 111.089844 C 1187.03125 114.050781 1187.773438 115.527344 1189.253906 115.527344 C 1189.671875 115.527344 1190.117188 115.390625 1190.589844 115.109375 C 1191.066406 114.832031 1191.636719 114.300781 1192.308594 113.519531 C 1192.976562 112.738281 1193.648438 111.523438 1194.316406 109.875 C 1194.988281 108.230469 1195.65625 106.191406 1196.328125 103.765625 L 1196.535156 103.050781 L 1188.371094 103.050781 C 1188.371094 103.136719 1188.246094 103.667969 1187.996094 104.644531 C 1187.746094 105.621094 1187.523438 106.707031 1187.324219 107.910156 C 1187.128906 109.109375 1187.03125 110.167969 1187.03125 111.089844 Z M 1187.03125 111.089844 " fill-opacity="1" fill-rule="nonzero"/><path fill="#000000" d="M 1140.496094 164.867188 C 1140.496094 165.816406 1140.695312 166.664062 1141.089844 167.414062 C 1141.484375 168.164062 1141.9375 168.71875 1142.449219 169.070312 C 1142.964844 169.425781 1143.515625 169.722656 1144.109375 169.960938 C 1144.699219 170.199219 1145.175781 170.335938 1145.53125 170.375 C 1145.886719 170.414062 1146.140625 170.433594 1146.300781 170.433594 L 1146.417969 170.375 L 1151.15625 151.542969 C 1154.195312 139.226562 1155.792969 132.910156 1155.953125 132.59375 C 1156.070312 132.398438 1156.210938 132.277344 1156.367188 132.238281 C 1156.523438 132.199219 1156.9375 132.160156 1157.609375 132.121094 C 1158.28125 132.082031 1158.714844 132.101562 1158.914062 132.179688 C 1159.109375 132.257812 1159.25 132.355469 1159.328125 132.476562 C 1159.40625 132.59375 1159.464844 132.691406 1159.503906 132.773438 C 1159.503906 132.96875 1157.945312 139.304688 1154.828125 151.78125 C 1151.707031 164.253906 1150.128906 170.511719 1150.089844 170.550781 C 1150.089844 170.632812 1150.265625 170.671875 1150.621094 170.671875 C 1152.675781 170.433594 1154.628906 169.742188 1156.484375 168.597656 C 1158.339844 167.453125 1159.839844 166.171875 1160.984375 164.75 C 1162.132812 163.328125 1163.039062 161.945312 1163.710938 160.605469 C 1164.382812 159.261719 1164.714844 158.214844 1164.714844 157.464844 C 1164.714844 156.832031 1164.480469 156.300781 1164.007812 155.867188 C 1163.53125 155.433594 1162.980469 155.078125 1162.347656 154.800781 C 1161.714844 154.523438 1161.164062 154.109375 1160.691406 153.558594 C 1160.214844 153.003906 1159.960938 152.3125 1159.921875 151.484375 C 1159.921875 150.300781 1160.433594 149.15625 1161.460938 148.050781 C 1162.484375 146.945312 1163.652344 146.390625 1164.953125 146.390625 C 1166.019531 146.390625 1167.027344 146.847656 1167.972656 147.753906 C 1168.921875 148.660156 1169.394531 150.082031 1169.394531 152.015625 C 1169.394531 153.121094 1169.21875 154.523438 1168.863281 156.222656 C 1168.507812 157.917969 1168.171875 159.144531 1167.855469 159.894531 C 1166.472656 163.878906 1163.945312 167.175781 1160.277344 169.78125 C 1156.605469 172.386719 1153.109375 173.691406 1149.792969 173.691406 L 1149.320312 173.691406 L 1147.957031 179.199219 C 1147.011719 182.949219 1146.515625 184.84375 1146.476562 184.882812 C 1146.28125 185.082031 1145.707031 185.179688 1144.761719 185.179688 L 1144.167969 185.179688 C 1143.378906 185.179688 1142.984375 184.902344 1142.984375 184.351562 C 1142.984375 184.3125 1143.179688 183.441406 1143.574219 181.746094 C 1143.96875 180.046875 1144.40625 178.328125 1144.878906 176.59375 C 1145.351562 174.855469 1145.609375 173.886719 1145.648438 173.691406 C 1145.648438 173.613281 1145.589844 173.574219 1145.472656 173.574219 C 1143.96875 173.574219 1142.09375 173.238281 1139.84375 172.566406 C 1137.59375 171.894531 1135.917969 170.886719 1134.8125 169.546875 C 1133.667969 168.164062 1133.09375 166.507812 1133.09375 164.570312 C 1133.09375 163.191406 1133.785156 160.644531 1135.167969 156.933594 C 1136.546875 153.222656 1137.257812 150.992188 1137.296875 150.242188 C 1137.296875 149.726562 1137.121094 149.472656 1136.765625 149.472656 C 1135.699219 149.472656 1134.671875 149.984375 1133.6875 151.011719 C 1132.699219 152.039062 1131.929688 153.398438 1131.378906 155.097656 C 1131.179688 155.808594 1131 156.222656 1130.84375 156.339844 C 1130.6875 156.457031 1130.292969 156.519531 1129.660156 156.519531 L 1128.652344 156.519531 C 1127.863281 156.519531 1127.46875 156.242188 1127.46875 155.6875 C 1127.46875 155.292969 1127.664062 154.644531 1128.0625 153.734375 C 1128.457031 152.828125 1129.046875 151.800781 1129.835938 150.65625 C 1130.625 149.511719 1131.652344 148.523438 1132.917969 147.695312 C 1134.179688 146.867188 1135.621094 146.449219 1137.238281 146.449219 C 1139.132812 146.449219 1140.792969 146.925781 1142.214844 147.871094 C 1143.636719 148.820312 1144.347656 150.121094 1144.347656 151.78125 C 1144.347656 152.53125 1143.714844 154.542969 1142.449219 157.820312 C 1141.1875 161.097656 1140.535156 163.445312 1140.496094 164.867188 Z M 1140.496094 164.867188 " fill-opacity="1" fill-rule="nonzero"/><path fill="#000000" d="M 1230.929688 125.71875 C 1230.929688 121.863281 1231.210938 118.207031 1231.769531 114.746094 C 1232.328125 111.28125 1232.96875 108.296875 1233.695312 105.78125 C 1234.421875 103.269531 1235.453125 100.8125 1236.792969 98.410156 C 1238.132812 96.011719 1239.195312 94.140625 1239.976562 92.800781 C 1240.757812 91.460938 1241.929688 90.007812 1243.496094 88.445312 C 1245.058594 86.882812 1245.980469 85.933594 1246.257812 85.597656 C 1246.539062 85.261719 1247.234375 84.675781 1248.351562 83.835938 L 1249.777344 83.835938 C 1250.558594 83.835938 1250.949219 84.089844 1250.949219 84.589844 C 1250.949219 84.757812 1250.476562 85.34375 1249.527344 86.351562 C 1248.578125 87.355469 1247.429688 88.835938 1246.089844 90.789062 C 1244.75 92.742188 1243.382812 95.144531 1241.988281 97.992188 C 1240.589844 100.839844 1239.417969 104.695312 1238.46875 109.550781 C 1237.519531 114.410156 1237.046875 119.796875 1237.046875 125.71875 C 1237.046875 131.636719 1237.519531 136.996094 1238.46875 141.800781 C 1239.417969 146.601562 1240.5625 150.480469 1241.902344 153.441406 C 1243.242188 156.402344 1244.613281 158.800781 1246.007812 160.644531 C 1247.402344 162.488281 1248.578125 163.96875 1249.527344 165.085938 C 1250.476562 166.203125 1250.949219 166.789062 1250.949219 166.84375 C 1250.949219 167.347656 1250.53125 167.597656 1249.691406 167.597656 L 1248.351562 167.597656 L 1246.007812 165.585938 C 1240.757812 160.839844 1236.933594 154.921875 1234.53125 147.828125 C 1232.132812 140.738281 1230.929688 133.367188 1230.929688 125.71875 Z M 1230.929688 125.71875 " fill-opacity="1" fill-rule="nonzero"/><path fill="#000000" d="M 1266.613281 122.449219 C 1266.613281 120.664062 1267.058594 118.847656 1267.953125 117.007812 C 1268.847656 115.164062 1270.410156 113.460938 1272.644531 111.898438 C 1274.875 110.332031 1277.585938 109.578125 1280.769531 109.636719 C 1284.230469 109.636719 1286.742188 110.390625 1288.304688 111.898438 C 1289.871094 113.40625 1290.679688 115.078125 1290.734375 116.921875 C 1290.734375 118.710938 1290.261719 120.023438 1289.3125 120.859375 C 1288.363281 121.695312 1287.300781 122.144531 1286.128906 122.199219 C 1285.402344 122.199219 1284.734375 121.976562 1284.117188 121.53125 C 1283.503906 121.082031 1283.167969 120.355469 1283.113281 119.351562 C 1283.113281 118.457031 1283.363281 117.675781 1283.867188 117.007812 C 1284.371094 116.335938 1284.84375 115.832031 1285.289062 115.5 C 1285.738281 115.164062 1286.101562 114.996094 1286.378906 114.996094 C 1286.4375 114.996094 1286.464844 114.96875 1286.464844 114.914062 C 1286.464844 114.746094 1286.269531 114.492188 1285.878906 114.160156 C 1285.488281 113.824219 1284.789062 113.515625 1283.785156 113.238281 C 1282.777344 112.957031 1281.6875 112.789062 1280.515625 112.734375 C 1277.835938 112.734375 1275.882812 113.460938 1274.652344 114.914062 C 1273.425781 116.363281 1272.78125 117.84375 1272.726562 119.351562 C 1272.726562 120.746094 1273.257812 121.726562 1274.320312 122.285156 C 1275.378906 122.839844 1276.914062 123.316406 1278.925781 123.707031 C 1280.933594 124.097656 1282.386719 124.515625 1283.28125 124.964844 C 1286.964844 126.582031 1288.808594 129.261719 1288.808594 133.003906 C 1288.808594 134.566406 1288.5 136.132812 1287.886719 137.695312 C 1287.273438 139.257812 1286.351562 140.820312 1285.125 142.386719 C 1283.894531 143.949219 1282.136719 145.175781 1279.847656 146.070312 C 1277.558594 146.964844 1274.933594 147.4375 1271.972656 147.496094 C 1267.671875 147.496094 1264.628906 146.683594 1262.84375 145.066406 C 1261.054688 143.445312 1260.136719 141.546875 1260.078125 139.371094 C 1260.078125 137.191406 1260.664062 135.628906 1261.839844 134.679688 C 1263.011719 133.730469 1264.238281 133.253906 1265.523438 133.253906 C 1266.359375 133.253906 1267.144531 133.507812 1267.867188 134.007812 C 1268.59375 134.511719 1268.984375 135.378906 1269.042969 136.605469 C 1269.042969 138.058594 1268.539062 139.285156 1267.535156 140.292969 C 1266.527344 141.296875 1265.664062 141.800781 1264.9375 141.800781 C 1264.824219 141.855469 1264.742188 141.882812 1264.6875 141.882812 C 1264.628906 141.882812 1264.601562 141.9375 1264.601562 142.050781 C 1264.660156 142.21875 1264.882812 142.441406 1265.273438 142.71875 C 1265.664062 143 1266.527344 143.363281 1267.867188 143.808594 C 1269.210938 144.257812 1270.746094 144.453125 1272.476562 144.394531 C 1274.484375 144.394531 1276.21875 144.089844 1277.667969 143.472656 C 1279.121094 142.859375 1280.183594 142.078125 1280.851562 141.128906 C 1281.523438 140.179688 1281.996094 139.3125 1282.277344 138.53125 C 1282.554688 137.75 1282.695312 137.054688 1282.695312 136.4375 C 1282.695312 134.875 1282.109375 133.703125 1280.933594 132.921875 C 1279.761719 132.140625 1278.421875 131.664062 1276.914062 131.496094 C 1275.40625 131.328125 1273.761719 130.910156 1271.972656 130.242188 C 1270.1875 129.570312 1268.875 128.59375 1268.035156 127.308594 C 1267.085938 125.914062 1266.613281 124.292969 1266.613281 122.449219 Z M 1266.613281 122.449219 " fill-opacity="1" fill-rule="nonzero"/><path fill="#000000" d="M 1311.1875 121.5 C 1309.847656 121.5 1309.136719 121.421875 1309.058594 121.261719 C 1309.019531 121.183594 1308.996094 121.027344 1308.996094 120.789062 C 1308.996094 119.839844 1309.214844 119.191406 1309.648438 118.835938 C 1309.726562 118.796875 1310.0625 118.773438 1310.65625 118.773438 C 1312.273438 118.855469 1314.960938 118.894531 1318.710938 118.894531 C 1320.050781 118.894531 1321.296875 118.894531 1322.441406 118.894531 C 1323.585938 118.894531 1324.472656 118.875 1325.105469 118.835938 C 1325.738281 118.796875 1326.132812 118.796875 1326.289062 118.835938 C 1326.921875 118.835938 1327.238281 119.03125 1327.238281 119.425781 C 1327.238281 119.503906 1327.199219 119.78125 1327.117188 120.253906 C 1326.921875 120.925781 1326.722656 121.320312 1326.527344 121.441406 L 1326.40625 121.441406 C 1326.328125 121.441406 1326.230469 121.441406 1326.113281 121.441406 C 1325.992188 121.441406 1325.855469 121.441406 1325.699219 121.441406 C 1325.539062 121.441406 1325.363281 121.460938 1325.164062 121.5 C 1324.96875 121.539062 1324.789062 121.539062 1324.632812 121.5 C 1323.09375 121.539062 1322.105469 121.597656 1321.671875 121.675781 C 1321.238281 121.757812 1320.882812 121.972656 1320.605469 122.328125 C 1320.488281 122.488281 1319.855469 124.914062 1318.710938 129.613281 C 1318.433594 130.640625 1318.136719 131.785156 1317.820312 133.046875 C 1317.503906 134.308594 1317.269531 135.238281 1317.109375 135.832031 L 1316.875 136.71875 C 1316.875 136.796875 1319.734375 136.835938 1325.460938 136.835938 L 1334.046875 136.835938 L 1334.105469 136.660156 C 1334.105469 136.539062 1334.71875 134.113281 1335.941406 129.375 C 1337.046875 124.835938 1337.601562 122.40625 1337.601562 122.089844 C 1337.601562 121.777344 1336.476562 121.578125 1334.226562 121.5 C 1333.316406 121.5 1332.726562 121.460938 1332.449219 121.382812 C 1332.171875 121.300781 1332.035156 121.125 1332.035156 120.847656 C 1332.035156 120.769531 1332.074219 120.53125 1332.152344 120.136719 C 1332.308594 119.464844 1332.429688 119.089844 1332.507812 119.011719 C 1332.585938 118.933594 1332.902344 118.875 1333.457031 118.835938 C 1333.652344 118.835938 1334.480469 118.855469 1335.941406 118.894531 C 1337.402344 118.933594 1339.257812 118.953125 1341.507812 118.953125 C 1343.957031 118.953125 1345.832031 118.933594 1347.132812 118.894531 C 1348.4375 118.855469 1349.148438 118.835938 1349.265625 118.835938 C 1349.9375 118.835938 1350.273438 119.03125 1350.273438 119.425781 C 1350.273438 120.492188 1350.035156 121.164062 1349.5625 121.441406 L 1349.445312 121.441406 C 1349.363281 121.441406 1349.265625 121.441406 1349.148438 121.441406 C 1349.03125 121.441406 1348.890625 121.441406 1348.734375 121.441406 C 1348.574219 121.441406 1348.398438 121.460938 1348.199219 121.5 C 1348.003906 121.539062 1347.824219 121.539062 1347.667969 121.5 C 1346.128906 121.539062 1345.140625 121.597656 1344.707031 121.675781 C 1344.273438 121.757812 1343.917969 121.972656 1343.640625 122.328125 C 1343.523438 122.527344 1342.101562 128.113281 1339.375 139.085938 C 1336.652344 150.0625 1335.269531 155.628906 1335.230469 155.785156 C 1335.230469 156.0625 1335.3125 156.199219 1335.46875 156.199219 C 1335.785156 156.320312 1336.851562 156.417969 1338.667969 156.496094 L 1340.503906 156.496094 C 1340.738281 156.8125 1340.855469 156.992188 1340.855469 157.03125 C 1340.855469 157.070312 1340.796875 157.425781 1340.679688 158.097656 C 1340.523438 158.609375 1340.324219 158.984375 1340.085938 159.222656 L 1339.199219 159.222656 C 1337.738281 159.140625 1335.09375 159.101562 1331.265625 159.101562 C 1329.921875 159.101562 1328.679688 159.101562 1327.535156 159.101562 C 1326.386719 159.101562 1325.480469 159.101562 1324.808594 159.101562 C 1324.136719 159.101562 1323.722656 159.121094 1323.566406 159.160156 C 1322.894531 159.160156 1322.558594 158.984375 1322.558594 158.628906 C 1322.558594 158.433594 1322.617188 158.15625 1322.738281 157.800781 C 1322.933594 157.050781 1323.132812 156.636719 1323.328125 156.554688 C 1323.488281 156.515625 1323.78125 156.496094 1324.21875 156.496094 L 1324.574219 156.496094 C 1325.636719 156.496094 1326.824219 156.4375 1328.125 156.320312 C 1328.363281 156.28125 1328.519531 156.261719 1328.597656 156.261719 C 1328.679688 156.261719 1328.796875 156.160156 1328.953125 155.964844 C 1329.113281 155.765625 1329.230469 155.589844 1329.308594 155.429688 C 1329.390625 155.273438 1329.507812 154.917969 1329.664062 154.367188 C 1329.824219 153.8125 1329.960938 153.261719 1330.078125 152.707031 C 1330.199219 152.15625 1330.414062 151.304688 1330.730469 150.160156 C 1331.007812 149.054688 1331.222656 148.167969 1331.382812 147.496094 C 1332.683594 142.285156 1333.335938 139.660156 1333.335938 139.621094 C 1333.335938 139.582031 1330.472656 139.5625 1324.75 139.5625 L 1316.164062 139.5625 L 1314.210938 147.554688 C 1312.867188 152.84375 1312.195312 155.589844 1312.195312 155.785156 C 1312.195312 156.0625 1312.355469 156.242188 1312.667969 156.320312 C 1312.984375 156.398438 1313.972656 156.457031 1315.628906 156.496094 L 1317.464844 156.496094 C 1317.703125 156.8125 1317.820312 156.992188 1317.820312 157.03125 C 1317.820312 157.070312 1317.761719 157.425781 1317.644531 158.097656 C 1317.484375 158.609375 1317.289062 158.984375 1317.050781 159.222656 L 1316.164062 159.222656 C 1314.703125 159.140625 1312.058594 159.101562 1308.226562 159.101562 C 1306.886719 159.101562 1305.640625 159.101562 1304.496094 159.101562 C 1303.351562 159.101562 1302.445312 159.101562 1301.773438 159.101562 C 1301.101562 159.101562 1300.6875 159.121094 1300.53125 159.160156 C 1299.859375 159.160156 1299.523438 158.984375 1299.523438 158.628906 C 1299.523438 158.550781 1299.582031 158.273438 1299.699219 157.800781 C 1299.898438 157.050781 1300.09375 156.636719 1300.292969 156.554688 C 1300.449219 156.515625 1300.746094 156.496094 1301.179688 156.496094 L 1301.535156 156.496094 C 1302.601562 156.496094 1303.785156 156.4375 1305.089844 156.320312 C 1305.640625 156.199219 1306.015625 155.964844 1306.214844 155.609375 C 1306.332031 155.449219 1307.753906 149.964844 1310.476562 139.144531 C 1313.203125 128.328125 1314.566406 122.625 1314.566406 122.03125 C 1314.566406 121.757812 1313.4375 121.578125 1311.1875 121.5 Z M 1311.1875 121.5 " fill-opacity="1" fill-rule="nonzero"/><path fill="#000000" d="M 1359.492188 83.921875 L 1359.828125 83.835938 C 1360.109375 83.835938 1360.386719 83.835938 1360.667969 83.835938 L 1361.671875 83.835938 L 1364.015625 85.847656 C 1369.265625 90.59375 1373.089844 96.511719 1375.492188 103.605469 C 1377.894531 110.695312 1379.09375 118.066406 1379.09375 125.71875 C 1379.09375 129.515625 1378.8125 133.171875 1378.253906 136.691406 C 1377.699219 140.207031 1377.054688 143.195312 1376.328125 145.652344 C 1375.601562 148.109375 1374.570312 150.566406 1373.230469 153.023438 C 1371.890625 155.480469 1370.828125 157.351562 1370.046875 158.636719 C 1369.265625 159.917969 1368.121094 161.34375 1366.613281 162.90625 C 1365.105469 164.46875 1364.210938 165.390625 1363.933594 165.671875 C 1363.652344 165.949219 1363.011719 166.480469 1362.007812 167.261719 C 1361.839844 167.429688 1361.726562 167.542969 1361.671875 167.597656 L 1360.667969 167.597656 C 1360.21875 167.597656 1359.914062 167.597656 1359.746094 167.597656 C 1359.578125 167.597656 1359.4375 167.511719 1359.324219 167.347656 C 1359.214844 167.179688 1359.128906 166.925781 1359.074219 166.59375 C 1359.128906 166.535156 1359.4375 166.171875 1359.996094 165.503906 C 1368.652344 156.511719 1372.980469 143.25 1372.980469 125.71875 C 1372.980469 108.183594 1368.652344 94.921875 1359.996094 85.933594 C 1359.4375 85.261719 1359.128906 84.898438 1359.074219 84.84375 C 1359.074219 84.394531 1359.214844 84.089844 1359.492188 83.921875 Z M 1359.492188 83.921875 " fill-opacity="1" fill-rule="nonzero"/><path fill="#000000" d="M 1387.46875 6.234375 L 1387.46875 0.121094 L 1413.265625 0.121094 L 1413.265625 251.316406 L 1387.46875 251.316406 L 1387.46875 245.199219 L 1407.152344 245.199219 L 1407.152344 6.234375 Z M 1387.46875 6.234375 " fill-opacity="1" fill-rule="nonzero"/></g></g></g></svg>